<?xml version="1.0" encoding="UTF-8"?>
<!DOCTYPE svg PUBLIC "-//W3C//DTD SVG 1.1//EN" "http://www.w3.org/Graphics/SVG/1.1/DTD/svg11.dtd">
<svg xmlns="http://www.w3.org/2000/svg" version="1.1" width="542px" height="236px" style="shape-rendering:geometricPrecision; text-rendering:geometricPrecision; image-rendering:optimizeQuality; fill-rule:evenodd; clip-rule:evenodd" xmlns:xlink="http://www.w3.org/1999/xlink">
<g><path style="opacity:1" fill="#4d6293" d="M 279.5,18.5 C 278.833,19.1667 278.167,19.8333 277.5,20.5C 277.107,18.7162 276.441,17.0495 275.5,15.5C 273.208,10.8498 269.542,7.84984 264.5,6.5C 259.724,4.96819 255.224,5.63486 251,8.5C 250.586,8.04265 250.086,7.70931 249.5,7.5C 247.814,8.85689 246.148,10.1902 244.5,11.5C 246.206,7.62126 249.206,5.12126 253.5,4C 262.355,1.74509 269.855,3.91175 276,10.5C 277.993,12.8175 279.159,15.4842 279.5,18.5 Z"/></g>
<g><path style="opacity:1" fill="#7eafe6" d="M 264.5,6.5 C 264.5,7.16667 264.5,7.83333 264.5,8.5C 263.883,8.38929 263.383,8.05596 263,7.5C 256.766,10.4004 251.766,14.7337 248,20.5C 247.349,23.528 248.515,25.528 251.5,26.5C 245.693,28.5499 242.693,26.3832 242.5,20C 242.362,16.8957 243.029,14.0624 244.5,11.5C 246.148,10.1902 247.814,8.85689 249.5,7.5C 250.086,7.70931 250.586,8.04265 251,8.5C 255.224,5.63486 259.724,4.96819 264.5,6.5 Z"/></g>
<g><path style="opacity:1" fill="#9ac1ec" d="M 264.5,8.5 C 265.5,8.5 266.5,8.5 267.5,8.5C 267.66,10.1992 267.494,11.8659 267,13.5C 263.905,16.692 261.572,20.3587 260,24.5C 257.379,25.9915 254.545,26.6582 251.5,26.5C 248.515,25.528 247.349,23.528 248,20.5C 251.766,14.7337 256.766,10.4004 263,7.5C 263.383,8.05596 263.883,8.38929 264.5,8.5 Z"/></g>
<g><path style="opacity:1" fill="#8aa6d2" d="M 264.5,6.5 C 269.542,7.84984 273.208,10.8498 275.5,15.5C 265.192,21.8119 256.525,29.8119 249.5,39.5C 243.513,34.2783 240.513,27.6117 240.5,19.5C 240.833,18.1667 241.167,16.8333 241.5,15.5C 241.738,13.5956 242.738,12.2623 244.5,11.5C 243.029,14.0624 242.362,16.8957 242.5,20C 242.693,26.3832 245.693,28.5499 251.5,26.5C 254.545,26.6582 257.379,25.9915 260,24.5C 261.572,20.3587 263.905,16.692 267,13.5C 267.494,11.8659 267.66,10.1992 267.5,8.5C 266.5,8.5 265.5,8.5 264.5,8.5C 264.5,7.83333 264.5,7.16667 264.5,6.5 Z"/></g>
<g><path style="opacity:1" fill="#acbedd" d="M 275.5,15.5 C 276.441,17.0495 277.107,18.7162 277.5,20.5C 277.5,21.1667 277.5,21.8333 277.5,22.5C 276.448,22.3505 275.448,22.5172 274.5,23C 270.5,26.3333 266.5,29.6667 262.5,33C 259.223,35.7663 256.557,38.933 254.5,42.5C 252.326,42.2503 250.659,41.2503 249.5,39.5C 256.525,29.8119 265.192,21.8119 275.5,15.5 Z"/></g>
<g><path style="opacity:1" fill="#6c719b" d="M 279.5,18.5 C 281.612,26.1405 280.279,33.1405 275.5,39.5C 263.593,49.5964 252.759,48.5964 243,36.5C 239.661,31.0421 238.827,25.3754 240.5,19.5C 240.513,27.6117 243.513,34.2783 249.5,39.5C 250.659,41.2503 252.326,42.2503 254.5,42.5C 264.916,45.2106 272.416,41.544 277,31.5C 277.498,28.5184 277.665,25.5184 277.5,22.5C 277.5,21.8333 277.5,21.1667 277.5,20.5C 278.167,19.8333 278.833,19.1667 279.5,18.5 Z"/></g>
<g><path style="opacity:1" fill="#d0d8ea" d="M 277.5,22.5 C 277.665,25.5184 277.498,28.5184 277,31.5C 272.416,41.544 264.916,45.2106 254.5,42.5C 256.557,38.933 259.223,35.7663 262.5,33C 266.5,29.6667 270.5,26.3333 274.5,23C 275.448,22.5172 276.448,22.3505 277.5,22.5 Z"/></g>
<g><path style="opacity:0.976" fill="#ababab" d="M 241.5,15.5 C 241.167,16.8333 240.833,18.1667 240.5,19.5C 238.827,25.3754 239.661,31.0421 243,36.5C 252.759,48.5964 263.593,49.5964 275.5,39.5C 269.977,48.624 261.977,51.7907 251.5,49C 239.963,43.432 235.463,34.2654 238,21.5C 238.424,18.9746 239.59,16.9746 241.5,15.5 Z"/></g>
<g><path style="opacity:0.684" fill="#374056" d="M 152.5,56.5 C 152.917,55.8761 153.584,55.5427 154.5,55.5C 157.029,55.9289 159.362,56.5955 161.5,57.5C 158.43,57.6323 155.43,57.299 152.5,56.5 Z"/></g>
<g><path style="opacity:1" fill="#b0cff1" d="M 152.5,66.5 C 149.984,66.7553 147.65,67.5886 145.5,69C 143.248,71.7361 141.248,74.5695 139.5,77.5C 136.101,79.3883 133.101,81.8883 130.5,85C 129.184,85.5281 128.517,85.0281 128.5,83.5C 131.089,75.8182 135.089,68.9849 140.5,63C 145.967,59.1758 151.967,57.8424 158.5,59C 159.731,60.1827 159.731,61.3493 158.5,62.5C 156.71,64.3157 154.71,65.6491 152.5,66.5 Z"/></g>
<g><path style="opacity:0.973" fill="#4b4f7e" d="M 379.5,59.5 C 382.428,60.5914 384.594,62.5914 386,65.5C 388.002,69.3418 389.502,73.3418 390.5,77.5C 390.672,78.4916 390.338,79.1583 389.5,79.5C 389.167,79.5 388.833,79.5 388.5,79.5C 388.204,77.597 387.537,75.9303 386.5,74.5C 385.925,71.0884 384.592,68.0884 382.5,65.5C 381.833,64.5 381.167,63.5 380.5,62.5C 380.938,62.5654 381.272,62.3988 381.5,62C 380.619,61.2917 379.953,60.4584 379.5,59.5 Z"/></g>
<g><path style="opacity:1" fill="#87a3d0" d="M 152.5,56.5 C 155.43,57.299 158.43,57.6323 161.5,57.5C 161.389,58.1174 161.056,58.6174 160.5,59C 162.874,59.8481 164.874,61.1814 166.5,63C 165.015,65.1561 163.515,67.3228 162,69.5C 160.887,68.695 159.721,68.0283 158.5,67.5C 156.735,66.5386 154.735,66.2053 152.5,66.5C 154.71,65.6491 156.71,64.3157 158.5,62.5C 159.731,61.3493 159.731,60.1827 158.5,59C 151.967,57.8424 145.967,59.1758 140.5,63C 135.089,68.9849 131.089,75.8182 128.5,83.5C 127.167,85.5 125.833,87.5 124.5,89.5C 124.5,88.5 124.5,87.5 124.5,86.5C 127.261,77.6436 131.595,69.6436 137.5,62.5C 141.655,58.5957 146.655,56.5957 152.5,56.5 Z"/></g>
<g><path style="opacity:1" fill="#d6e1f2" d="M 268.5,58.5 C 268.5,61.1667 268.5,63.8333 268.5,66.5C 263.023,70.4057 258.19,75.0724 254,80.5C 252.964,73.2009 252.464,65.8675 252.5,58.5C 257.833,58.5 263.167,58.5 268.5,58.5 Z"/></g>
<g><path style="opacity:1" fill="#283d7d" d="M 166.5,59.5 C 174.65,64.3334 180.317,71.3334 183.5,80.5C 183.145,81.5223 182.478,82.189 181.5,82.5C 178.833,83.5 176.167,84.5 173.5,85.5C 172.761,85.631 172.094,85.4643 171.5,85C 174.619,83.4577 177.286,81.4577 179.5,79C 178.103,74.7886 175.769,71.2886 172.5,68.5C 170.476,65.4968 168.476,62.4968 166.5,59.5 Z"/></g>
<g><path style="opacity:1" fill="#dce2f1" d="M 376.5,60.5 C 377.833,61.1667 379.167,61.8333 380.5,62.5C 381.167,63.5 381.833,64.5 382.5,65.5C 382.662,67.5273 382.495,69.5273 382,71.5C 379.692,72.6411 377.859,74.3078 376.5,76.5C 373.502,77.6435 370.502,77.6435 367.5,76.5C 365.097,76.393 363.264,77.393 362,79.5C 359.213,84.739 356.713,90.0724 354.5,95.5C 350.931,101.07 346.264,105.736 340.5,109.5C 338.492,114.529 336.492,119.529 334.5,124.5C 333.89,125.391 333.557,126.391 333.5,127.5C 330.744,129.447 328.078,131.614 325.5,134C 323.843,134.725 322.843,134.225 322.5,132.5C 325.462,123.931 328.796,115.598 332.5,107.5C 332.714,109.144 332.38,110.644 331.5,112C 332,112.167 332.5,112.333 333,112.5C 335.69,110.312 338.523,108.312 341.5,106.5C 346.04,94.712 350.874,83.0453 356,71.5C 357.41,70.2125 358.91,69.0458 360.5,68C 364.882,67.5431 369.216,67.5431 373.5,68C 374.453,66.0448 375.787,64.3782 377.5,63C 376.748,62.3292 376.414,61.4959 376.5,60.5 Z"/></g>
<g><path style="opacity:1" fill="#2d5ba4" d="M 172.5,68.5 C 175.769,71.2886 178.103,74.7886 179.5,79C 177.286,81.4577 174.619,83.4577 171.5,85C 172.094,85.4643 172.761,85.631 173.5,85.5C 170.448,87.8673 167.115,89.8673 163.5,91.5C 160.771,86.3823 157.771,81.3823 154.5,76.5C 153.537,75.6365 153.537,74.9698 154.5,74.5C 158.302,77.4279 161.468,76.7612 164,72.5C 164.833,73.5 165.667,74.5 166.5,75.5C 168.523,73.1472 170.523,70.8138 172.5,68.5 Z"/></g>
<g><path style="opacity:1" fill="#3d6db2" d="M 161.5,57.5 C 163.553,57.4021 165.22,58.0687 166.5,59.5C 168.476,62.4968 170.476,65.4968 172.5,68.5C 170.523,70.8138 168.523,73.1472 166.5,75.5C 165.667,74.5 164.833,73.5 164,72.5C 161.468,76.7612 158.302,77.4279 154.5,74.5C 153.537,74.9698 153.537,75.6365 154.5,76.5C 153.5,76.5 152.5,76.5 151.5,76.5C 151.19,75.2617 150.69,75.2617 150,76.5C 148.726,79.3911 147.226,82.0578 145.5,84.5C 144.504,84.4142 143.671,84.7476 143,85.5C 140.297,91.0371 136.13,95.0371 130.5,97.5C 133.107,92.6203 135.44,87.6203 137.5,82.5C 138.922,82.2914 140.255,81.7914 141.5,81C 146.744,75.7927 152.41,71.2927 158.5,67.5C 159.721,68.0283 160.887,68.695 162,69.5C 163.515,67.3228 165.015,65.1561 166.5,63C 164.874,61.1814 162.874,59.8481 160.5,59C 161.056,58.6174 161.389,58.1174 161.5,57.5 Z"/></g>
<g><path style="opacity:1" fill="#5e86c0" d="M 152.5,66.5 C 154.735,66.2053 156.735,66.5386 158.5,67.5C 152.41,71.2927 146.744,75.7927 141.5,81C 140.255,81.7914 138.922,82.2914 137.5,82.5C 138.441,80.9505 139.107,79.2838 139.5,77.5C 141.248,74.5695 143.248,71.7361 145.5,69C 147.65,67.5886 149.984,66.7553 152.5,66.5 Z"/></g>
<g><path style="opacity:1" fill="#e5edf9" d="M 376.5,60.5 C 376.414,61.4959 376.748,62.3292 377.5,63C 375.787,64.3782 374.453,66.0448 373.5,68C 369.216,67.5431 364.882,67.5431 360.5,68C 358.91,69.0458 357.41,70.2125 356,71.5C 350.874,83.0453 346.04,94.712 341.5,106.5C 338.523,108.312 335.69,110.312 333,112.5C 332.5,112.333 332,112.167 331.5,112C 332.38,110.644 332.714,109.144 332.5,107.5C 337.5,93.338 343,79.338 349,65.5C 356.926,56.9909 366.093,55.3243 376.5,60.5 Z"/></g>
<g><path style="opacity:1" fill="#98b0d7" d="M 250.5,56.5 C 257.584,55.8745 264.25,56.5411 270.5,58.5C 269.833,58.5 269.167,58.5 268.5,58.5C 263.167,58.5 257.833,58.5 252.5,58.5C 252.464,65.8675 252.964,73.2009 254,80.5C 258.19,75.0724 263.023,70.4057 268.5,66.5C 270.535,74.5752 268.035,80.5752 261,84.5C 260.51,85.7932 260.343,87.1266 260.5,88.5C 258.264,89.3891 256.264,90.7224 254.5,92.5C 253.817,92.1373 253.15,91.8039 252.5,91.5C 252.817,87.2984 252.483,83.2984 251.5,79.5C 251.5,78.8333 251.167,78.5 250.5,78.5C 250.5,71.5 250.5,64.5 250.5,57.5C 250.5,57.1667 250.5,56.8333 250.5,56.5 Z"/></g>
<g><path style="opacity:1" fill="#b5c4e0" d="M 382.5,65.5 C 384.592,68.0884 385.925,71.0884 386.5,74.5C 386.822,76.7224 386.155,78.5557 384.5,80C 382.376,81.6207 380.376,83.454 378.5,85.5C 376.929,86.3094 375.262,86.6427 373.5,86.5C 372.517,82.5311 370.517,79.1977 367.5,76.5C 370.502,77.6435 373.502,77.6435 376.5,76.5C 377.859,74.3078 379.692,72.6411 382,71.5C 382.495,69.5273 382.662,67.5273 382.5,65.5 Z"/></g>
<g><path style="opacity:0.987" fill="#9e9ea1" d="M 151.5,76.5 C 152.5,76.5 153.5,76.5 154.5,76.5C 157.771,81.3823 160.771,86.3823 163.5,91.5C 167.115,89.8673 170.448,87.8673 173.5,85.5C 176.167,84.5 178.833,83.5 181.5,82.5C 180.585,84.7541 179.252,86.7541 177.5,88.5C 171.009,91.5785 164.675,94.9118 158.5,98.5C 155.157,93.8041 151.824,89.1374 148.5,84.5C 148.94,81.6202 149.94,78.9535 151.5,76.5 Z"/></g>
<g><path style="opacity:1" fill="#626691" d="M 367.5,76.5 C 370.517,79.1977 372.517,82.5311 373.5,86.5C 373.833,87.1667 374.167,87.8333 374.5,88.5C 373.662,88.8417 373.328,89.5084 373.5,90.5C 371.789,86.093 369.289,82.093 366,78.5C 363.429,80.9756 361.929,83.9756 361.5,87.5C 359.5,91.8333 357.5,96.1667 355.5,100.5C 354.833,100.167 354.167,99.8333 353.5,99.5C 353.833,98.1667 354.167,96.8333 354.5,95.5C 356.713,90.0724 359.213,84.739 362,79.5C 363.264,77.393 365.097,76.393 367.5,76.5 Z"/></g>
<g><path style="opacity:1" fill="#678cc3" d="M 388.5,79.5 C 388.833,79.5 389.167,79.5 389.5,79.5C 389.629,81.2161 389.962,82.8828 390.5,84.5C 390.657,85.8734 390.49,87.2068 390,88.5C 387.272,91.473 384.439,94.3063 381.5,97C 380.552,97.4828 379.552,97.6495 378.5,97.5C 377.514,95.5739 376.514,93.5739 375.5,91.5C 382.75,90.4167 387.084,86.4167 388.5,79.5 Z"/></g>
<g><path style="opacity:1" fill="#8ba6d1" d="M 386.5,74.5 C 387.537,75.9303 388.204,77.597 388.5,79.5C 387.084,86.4167 382.75,90.4167 375.5,91.5C 375.443,90.391 375.11,89.391 374.5,88.5C 374.167,87.8333 373.833,87.1667 373.5,86.5C 375.262,86.6427 376.929,86.3094 378.5,85.5C 380.376,83.454 382.376,81.6207 384.5,80C 386.155,78.5557 386.822,76.7224 386.5,74.5 Z"/></g>
<g><path style="opacity:1" fill="#547ab7" d="M 268.5,58.5 C 269.167,58.5 269.833,58.5 270.5,58.5C 270.5,64.8333 270.5,71.1667 270.5,77.5C 268.862,81.8757 268.029,86.5424 268,91.5C 266.316,93.3513 264.483,95.018 262.5,96.5C 261.336,102.807 261.169,109.141 262,115.5C 263.684,113.649 265.517,111.982 267.5,110.5C 268.51,115.299 269.51,119.966 270.5,124.5C 270.5,128.5 270.5,132.5 270.5,136.5C 269.833,133.833 269.167,131.167 268.5,128.5C 268.5,127.833 268.5,127.167 268.5,126.5C 268.5,123.833 268.5,121.167 268.5,118.5C 265.358,118.799 263.191,120.466 262,123.5C 260.604,115.92 260.104,108.253 260.5,100.5C 260.5,96.5 260.5,92.5 260.5,88.5C 260.343,87.1266 260.51,85.7932 261,84.5C 268.035,80.5752 270.535,74.5752 268.5,66.5C 268.5,63.8333 268.5,61.1667 268.5,58.5 Z"/></g>
<g><path style="opacity:1" fill="#2c61ac" d="M 145.5,84.5 C 139.062,99.1722 132.062,113.506 124.5,127.5C 124.44,126.957 124.107,126.624 123.5,126.5C 119.894,128.603 116.727,131.269 114,134.5C 113.617,133.944 113.117,133.611 112.5,133.5C 114.438,129.957 116.105,126.29 117.5,122.5C 122.072,114.358 126.405,106.025 130.5,97.5C 136.13,95.0371 140.297,91.0371 143,85.5C 143.671,84.7476 144.504,84.4142 145.5,84.5 Z"/></g>
<g><path style="opacity:1" fill="#7ba8dc" d="M 260.5,88.5 C 260.5,92.5 260.5,96.5 260.5,100.5C 257.944,101.543 255.777,103.21 254,105.5C 252.621,100.964 252.121,96.2973 252.5,91.5C 253.15,91.8039 253.817,92.1373 254.5,92.5C 256.264,90.7224 258.264,89.3891 260.5,88.5 Z"/></g>
<g><path style="opacity:1" fill="#91a1c7" d="M 379.5,59.5 C 379.953,60.4584 380.619,61.2917 381.5,62C 381.272,62.3988 380.938,62.5654 380.5,62.5C 379.167,61.8333 377.833,61.1667 376.5,60.5C 366.093,55.3243 356.926,56.9909 349,65.5C 343,79.338 337.5,93.338 332.5,107.5C 328.796,115.598 325.462,123.931 322.5,132.5C 321.833,133.5 321.167,134.5 320.5,135.5C 319.833,135.5 319.5,135.167 319.5,134.5C 319.833,132.5 320.167,130.5 320.5,128.5C 329.129,108.466 337.296,88.1327 345,67.5C 347.335,64.3347 349.835,61.3347 352.5,58.5C 361.746,52.9494 370.746,53.2827 379.5,59.5 Z"/></g>
<g><path style="opacity:0.984" fill="#22397b" d="M 390.5,77.5 C 396.019,89.8858 401.019,102.552 405.5,115.5C 404.833,115.833 404.167,116.167 403.5,116.5C 403.107,114.716 402.441,113.05 401.5,111.5C 398.069,102.319 394.403,93.3188 390.5,84.5C 389.962,82.8828 389.629,81.2161 389.5,79.5C 390.338,79.1583 390.672,78.4916 390.5,77.5 Z"/></g>
<g><path style="opacity:1" fill="#305ea6" d="M 270.5,77.5 C 269.377,93.1612 269.377,108.828 270.5,124.5C 269.51,119.966 268.51,115.299 267.5,110.5C 265.517,111.982 263.684,113.649 262,115.5C 261.169,109.141 261.336,102.807 262.5,96.5C 264.483,95.018 266.316,93.3513 268,91.5C 268.029,86.5424 268.862,81.8757 270.5,77.5 Z"/></g>
<g><path style="opacity:1" fill="#a3a4a4" d="M 250.5,57.5 C 250.5,64.5 250.5,71.5 250.5,78.5C 250.5,88.1667 250.5,97.8333 250.5,107.5C 249.671,115.657 249.171,123.99 249,132.5C 248.882,129.629 248.216,126.962 247,124.5C 246.667,135.167 246.333,145.833 246,156.5C 245.832,138.329 245.332,120.329 244.5,102.5C 244.333,88.1628 244.5,73.8295 245,59.5C 246.584,58.1387 248.418,57.472 250.5,57.5 Z"/></g>
<g><path style="opacity:1" fill="#7cb1e8" d="M 139.5,77.5 C 139.107,79.2838 138.441,80.9505 137.5,82.5C 135.44,87.6203 133.107,92.6203 130.5,97.5C 126.405,106.025 122.072,114.358 117.5,122.5C 117.44,121.957 117.107,121.624 116.5,121.5C 115.3,122.531 113.966,123.365 112.5,124C 108.559,127.481 105.226,131.314 102.5,135.5C 109.833,120.167 117.167,104.833 124.5,89.5C 125.833,87.5 127.167,85.5 128.5,83.5C 128.517,85.0281 129.184,85.5281 130.5,85C 133.101,81.8883 136.101,79.3883 139.5,77.5 Z"/></g>
<g><path style="opacity:1" fill="#25397a" d="M 151.5,76.5 C 149.94,78.9535 148.94,81.6202 148.5,84.5C 136.675,110.148 124.342,135.481 111.5,160.5C 111.672,159.508 111.338,158.842 110.5,158.5C 111.167,156.5 111.833,154.5 112.5,152.5C 114.674,149.485 116.341,146.151 117.5,142.5C 120.397,137.833 122.73,132.833 124.5,127.5C 132.062,113.506 139.062,99.1722 145.5,84.5C 147.226,82.0578 148.726,79.3911 150,76.5C 150.69,75.2617 151.19,75.2617 151.5,76.5 Z"/></g>
<g><path style="opacity:0.427" fill="#192062" d="M 250.5,56.5 C 257.313,55.5088 264.313,55.1755 271.5,55.5C 271.5,97.5 271.5,139.5 271.5,181.5C 270.662,181.158 270.328,180.492 270.5,179.5C 270.5,165.167 270.5,150.833 270.5,136.5C 270.5,132.5 270.5,128.5 270.5,124.5C 269.377,108.828 269.377,93.1612 270.5,77.5C 270.5,71.1667 270.5,64.8333 270.5,58.5C 264.25,56.5411 257.584,55.8745 250.5,56.5 Z"/></g>
<g><path style="opacity:0.983" fill="#a4a4a5" d="M 352.5,58.5 C 349.835,61.3347 347.335,64.3347 345,67.5C 337.296,88.1327 329.129,108.466 320.5,128.5C 320.052,126.535 319.052,126.202 317.5,127.5C 316.709,130.845 315.375,133.178 313.5,134.5C 321.369,113.088 329.536,91.7544 338,70.5C 340.985,64.2587 345.818,60.2587 352.5,58.5 Z"/></g>
<g><path style="opacity:0.902" fill="#979898" d="M 244.5,102.5 C 245.332,120.329 245.832,138.329 246,156.5C 246.333,145.833 246.667,135.167 247,124.5C 248.216,126.962 248.882,129.629 249,132.5C 249.171,123.99 249.671,115.657 250.5,107.5C 250.5,145.5 250.5,183.5 250.5,221.5C 248.772,223.226 246.772,224.559 244.5,225.5C 244.5,184.5 244.5,143.5 244.5,102.5 Z"/></g>
<g><path style="opacity:1" fill="#3467b0" d="M 390.5,84.5 C 394.403,93.3188 398.069,102.319 401.5,111.5C 397.213,113.65 393.213,116.317 389.5,119.5C 388.548,121.045 388.215,122.712 388.5,124.5C 384.795,115.729 381.462,106.729 378.5,97.5C 379.552,97.6495 380.552,97.4828 381.5,97C 384.439,94.3063 387.272,91.473 390,88.5C 390.49,87.2068 390.657,85.8734 390.5,84.5 Z"/></g>
<g><path style="opacity:1" fill="#3a4e88" d="M 374.5,88.5 C 375.11,89.391 375.443,90.391 375.5,91.5C 376.514,93.5739 377.514,95.5739 378.5,97.5C 381.462,106.729 384.795,115.729 388.5,124.5C 388.796,126.403 389.463,128.07 390.5,129.5C 391.038,131.117 391.371,132.784 391.5,134.5C 390.833,133.833 390.167,133.167 389.5,132.5C 384.171,118.531 378.837,104.531 373.5,90.5C 373.328,89.5084 373.662,88.8417 374.5,88.5 Z"/></g>
<g><path style="opacity:0.714" fill="#b7bac3" d="M 9.5,113.5 C 37.5079,113.167 65.5079,113.5 93.5,114.5C 93.3764,115.107 93.0431,115.44 92.5,115.5C 65.3364,114.336 38.0031,114.17 10.5,115C 11.3805,115.708 12.0472,116.542 12.5,117.5C 12.1667,118.167 11.8333,118.833 11.5,119.5C 11.1583,120.338 10.4916,120.672 9.5,120.5C 9.5,118.167 9.5,115.833 9.5,113.5 Z"/></g>
<g><path style="opacity:0.714" fill="#b6b9c4" d="M 144.5,113.5 C 174.507,113.167 204.507,113.5 234.5,114.5C 234.376,115.107 234.043,115.44 233.5,115.5C 204.003,114.336 174.336,114.169 144.5,115C 143.956,115.717 143.289,116.217 142.5,116.5C 142.427,114.973 143.094,113.973 144.5,113.5 Z"/></g>
<g><path style="opacity:0.714" fill="#b8bbc5" d="M 415.5,113.5 C 444.508,113.167 473.508,113.5 502.5,114.5C 502.376,115.107 502.043,115.44 501.5,115.5C 473.167,114.167 444.833,114.167 416.5,115.5C 415.662,115.158 415.328,114.492 415.5,113.5 Z"/></g>
<g><path style="opacity:1" fill="#e3e4e5" d="M 92.5,115.5 C 91.8333,115.833 91.1667,116.167 90.5,116.5C 64.5743,117.49 38.5743,117.824 12.5,117.5C 12.0472,116.542 11.3805,115.708 10.5,115C 38.0031,114.17 65.3364,114.336 92.5,115.5 Z"/></g>
<g><path style="opacity:1" fill="#e2e3e4" d="M 233.5,115.5 C 233.389,116.117 233.056,116.617 232.5,117C 203.833,117.333 175.167,117.667 146.5,118C 144.922,119.094 143.255,119.928 141.5,120.5C 142.234,119.292 142.567,117.959 142.5,116.5C 143.289,116.217 143.956,115.717 144.5,115C 174.336,114.169 204.003,114.336 233.5,115.5 Z"/></g>
<g><path style="opacity:1" fill="#aabcdc" d="M 354.5,95.5 C 354.167,96.8333 353.833,98.1667 353.5,99.5C 351.638,103.75 349.972,108.083 348.5,112.5C 347.448,112.351 346.448,112.517 345.5,113C 345.833,113.333 346.167,113.667 346.5,114C 342.854,118.162 338.854,121.662 334.5,124.5C 336.492,119.529 338.492,114.529 340.5,109.5C 346.264,105.736 350.931,101.07 354.5,95.5 Z"/></g>
<g><path style="opacity:1" fill="#e3e4e5" d="M 416.5,115.5 C 444.833,114.167 473.167,114.167 501.5,115.5C 501.167,116.167 500.833,116.833 500.5,117.5C 473.498,117.667 446.498,117.5 419.5,117C 418.956,116.283 418.289,115.783 417.5,115.5C 417.167,115.5 416.833,115.5 416.5,115.5 Z"/></g>
<g><path style="opacity:0.392" fill="#0e1543" d="M 363.5,117.5 C 362.833,117.5 362.5,117.167 362.5,116.5C 362.265,115.903 361.765,115.57 361,115.5C 359.989,116.056 359.156,116.722 358.5,117.5C 358.5,116.5 358.5,115.5 358.5,114.5C 360.167,114.5 361.833,114.5 363.5,114.5C 363.5,115.5 363.5,116.5 363.5,117.5 Z"/></g>
<g><path style="opacity:1" fill="#4977b8" d="M 401.5,111.5 C 402.441,113.05 403.107,114.716 403.5,116.5C 402.448,116.351 401.448,116.517 400.5,117C 397.72,119.564 394.72,121.897 391.5,124C 390.594,125.699 390.261,127.533 390.5,129.5C 389.463,128.07 388.796,126.403 388.5,124.5C 388.215,122.712 388.548,121.045 389.5,119.5C 393.213,116.317 397.213,113.65 401.5,111.5 Z"/></g>
<g><path style="opacity:1" fill="#362962" d="M 415.5,113.5 C 415.328,114.492 415.662,115.158 416.5,115.5C 416.833,115.5 417.167,115.5 417.5,115.5C 416.89,116.391 416.557,117.391 416.5,118.5C 414.655,117.005 414.322,115.338 415.5,113.5 Z"/></g>
<g><path style="opacity:1" fill="#a2a2a3" d="M 373.5,90.5 C 378.837,104.531 384.171,118.531 389.5,132.5C 390.167,135.167 390.833,137.833 391.5,140.5C 391.565,140.938 391.399,141.272 391,141.5C 388.746,136.964 385.246,134.964 380.5,135.5C 374.167,119.5 367.833,103.5 361.5,87.5C 361.929,83.9756 363.429,80.9756 366,78.5C 369.289,82.093 371.789,86.093 373.5,90.5 Z"/></g>
<g><path style="opacity:1" fill="#787779" d="M 417.5,115.5 C 418.289,115.783 418.956,116.283 419.5,117C 446.498,117.5 473.498,117.667 500.5,117.5C 501.043,117.56 501.376,117.893 501.5,118.5C 473.434,119.175 445.434,119.841 417.5,120.5C 416.662,120.158 416.328,119.492 416.5,118.5C 416.557,117.391 416.89,116.391 417.5,115.5 Z"/></g>
<g><path style="opacity:1" fill="#7a7979" d="M 90.5,116.5 C 90.5,117.5 90.5,118.5 90.5,119.5C 64.1667,119.5 37.8333,119.5 11.5,119.5C 11.8333,118.833 12.1667,118.167 12.5,117.5C 38.5743,117.824 64.5743,117.49 90.5,116.5 Z"/></g>
<g><path style="opacity:0.159" fill="#090a11" d="M 142.5,116.5 C 142.567,117.959 142.234,119.292 141.5,120.5C 141.167,120.5 140.833,120.5 140.5,120.5C 140.66,118.847 141.326,117.514 142.5,116.5 Z"/></g>
<g><path style="opacity:1" fill="#5d5c5e" d="M 144.5,113.5 C 174.833,112.167 205.167,112.167 235.5,113.5C 235.5,116.167 235.5,118.833 235.5,121.5C 203.996,121.832 172.662,121.498 141.5,120.5C 143.255,119.928 144.922,119.094 146.5,118C 175.167,117.667 203.833,117.333 232.5,117C 233.056,116.617 233.389,116.117 233.5,115.5C 234.043,115.44 234.376,115.107 234.5,114.5C 204.507,113.5 174.507,113.167 144.5,113.5 Z"/></g>
<g><path style="opacity:0.969" fill="#cecfd2" d="M 362.5,116.5 C 361.717,118.076 360.55,119.409 359,120.5C 358.517,119.552 358.351,118.552 358.5,117.5C 359.156,116.722 359.989,116.056 361,115.5C 361.765,115.57 362.265,115.903 362.5,116.5 Z"/></g>
<g><path style="opacity:0.863" fill="#49494e" d="M 9.5,113.5 C 37.6637,112.336 65.997,112.17 94.5,113C 94.9574,113.414 95.2907,113.914 95.5,114.5C 94.4805,116.604 93.4805,118.604 92.5,120.5C 64.7356,121.828 37.069,121.828 9.5,120.5C 10.4916,120.672 11.1583,120.338 11.5,119.5C 37.8333,119.5 64.1667,119.5 90.5,119.5C 90.5,118.5 90.5,117.5 90.5,116.5C 91.1667,116.167 91.8333,115.833 92.5,115.5C 93.0431,115.44 93.3764,115.107 93.5,114.5C 65.5079,113.5 37.5079,113.167 9.5,113.5 Z"/></g>
<g><path style="opacity:0.863" fill="#3a3155" d="M 280.5,113.5 C 290.325,112.342 300.325,112.175 310.5,113C 311.042,115.927 310.375,118.76 308.5,121.5C 299.184,122.665 289.851,122.832 280.5,122C 279.183,119.063 279.183,116.23 280.5,113.5 Z"/></g>
<g><path style="opacity:1" fill="#747373" d="M 283.5,117.5 C 291.167,117.5 298.833,117.5 306.5,117.5C 307.404,118.209 307.737,119.209 307.5,120.5C 299.167,120.5 290.833,120.5 282.5,120.5C 283.11,119.609 283.443,118.609 283.5,117.5 Z"/></g>
<g><path style="opacity:1" fill="#e2e3e4" d="M 308.5,115.5 C 307.5,115.833 306.833,116.5 306.5,117.5C 298.833,117.5 291.167,117.5 283.5,117.5C 283.047,116.542 282.381,115.708 281.5,115C 290.676,114.176 299.676,114.343 308.5,115.5 Z"/></g>
<g><path style="opacity:0.714" fill="#b7b8c1" d="M 280.5,113.5 C 290.19,113.168 299.856,113.502 309.5,114.5C 309.376,115.107 309.043,115.44 308.5,115.5C 299.676,114.343 290.676,114.176 281.5,115C 282.381,115.708 283.047,116.542 283.5,117.5C 283.443,118.609 283.11,119.609 282.5,120.5C 280.656,118.721 279.99,116.388 280.5,113.5 Z"/></g>
<g><path style="opacity:0.863" fill="#5a5a64" d="M 362.5,116.5 C 362.5,117.167 362.833,117.5 363.5,117.5C 363.5,118.833 363.5,120.167 363.5,121.5C 361.5,121.5 359.5,121.5 357.5,121.5C 356.529,120.038 356.862,118.705 358.5,117.5C 358.351,118.552 358.517,119.552 359,120.5C 360.55,119.409 361.717,118.076 362.5,116.5 Z"/></g>
<g><path style="opacity:0.863" fill="#443c58" d="M 415.5,113.5 C 444.902,112.168 474.402,112.168 504,113.5C 504.777,116.429 504.61,119.263 503.5,122C 489.167,122.167 474.833,122.333 460.5,122.5C 445.817,122.499 431.484,121.833 417.5,120.5C 445.434,119.841 473.434,119.175 501.5,118.5C 501.376,117.893 501.043,117.56 500.5,117.5C 500.833,116.833 501.167,116.167 501.5,115.5C 502.043,115.44 502.376,115.107 502.5,114.5C 473.508,113.5 444.508,113.167 415.5,113.5 Z"/></g>
<g><path style="opacity:0.318" fill="#000677" d="M 9.5,113.5 C 9.5,115.833 9.5,118.167 9.5,120.5C 37.069,121.828 64.7356,121.828 92.5,120.5C 64.8533,122.492 36.8533,123.158 8.5,122.5C 8.19,119.287 8.52333,116.287 9.5,113.5 Z"/></g>
<g><path style="opacity:0.318" fill="#00057c" d="M 235.5,113.5 C 236.477,116.287 236.81,119.287 236.5,122.5C 204.149,123.159 172.149,122.493 140.5,120.5C 140.833,120.5 141.167,120.5 141.5,120.5C 172.662,121.498 203.996,121.832 235.5,121.5C 235.5,118.833 235.5,116.167 235.5,113.5 Z"/></g>
<g><path style="opacity:0.318" fill="#14127a" d="M 363.5,117.5 C 364.451,118.919 364.784,120.585 364.5,122.5C 361.941,122.802 359.607,122.468 357.5,121.5C 359.5,121.5 361.5,121.5 363.5,121.5C 363.5,120.167 363.5,118.833 363.5,117.5 Z"/></g>
<g><path style="opacity:1" fill="#7fb3e9" d="M 117.5,122.5 C 116.105,126.29 114.438,129.957 112.5,133.5C 110.503,138.162 108.503,142.829 106.5,147.5C 105.5,148.833 104.5,150.167 103.5,151.5C 103.565,151.062 103.399,150.728 103,150.5C 99.2154,154.131 95.0487,157.131 90.5,159.5C 93.9922,151.182 97.9922,143.182 102.5,135.5C 105.226,131.314 108.559,127.481 112.5,124C 113.966,123.365 115.3,122.531 116.5,121.5C 117.107,121.624 117.44,121.957 117.5,122.5 Z"/></g>
<g><path style="opacity:0.978" fill="#989898" d="M 320.5,128.5 C 320.167,130.5 319.833,132.5 319.5,134.5C 307.36,163.124 296.027,192.124 285.5,221.5C 282.605,222.399 279.938,223.733 277.5,225.5C 288.734,194.786 300.734,164.452 313.5,134.5C 315.375,133.178 316.709,130.845 317.5,127.5C 319.052,126.202 320.052,126.535 320.5,128.5 Z"/></g>
<g><path style="opacity:1" fill="#7596c8" d="M 403.5,116.5 C 404.499,119.162 405.499,121.828 406.5,124.5C 405.577,123.697 404.577,123.53 403.5,124C 400.473,127.272 397.306,130.439 394,133.5C 393.51,134.793 393.343,136.127 393.5,137.5C 392.833,136.5 392.167,135.5 391.5,134.5C 391.371,132.784 391.038,131.117 390.5,129.5C 390.261,127.533 390.594,125.699 391.5,124C 394.72,121.897 397.72,119.564 400.5,117C 401.448,116.517 402.448,116.351 403.5,116.5 Z"/></g>
<g><path style="opacity:0.369" fill="#020107" d="M 367.5,130.5 C 367.5,130.833 367.5,131.167 367.5,131.5C 362.405,131.221 357.405,131.555 352.5,132.5C 357.056,130.558 362.056,129.892 367.5,130.5 Z"/></g>
<g><path style="opacity:1" fill="#7596c8" d="M 348.5,112.5 C 346.167,118.5 343.833,124.5 341.5,130.5C 337.483,132.861 333.483,135.194 329.5,137.5C 330.833,134.167 332.167,130.833 333.5,127.5C 333.557,126.391 333.89,125.391 334.5,124.5C 338.854,121.662 342.854,118.162 346.5,114C 346.167,113.667 345.833,113.333 345.5,113C 346.448,112.517 347.448,112.351 348.5,112.5 Z"/></g>
<g><path style="opacity:1" fill="#d9dbdc" d="M 84.5,131.5 C 83.8333,132.5 83.1667,133.5 82.5,134.5C 59.2093,135.313 35.876,135.813 12.5,136C 11.6195,136.708 10.9528,137.542 10.5,138.5C 9.53178,136.393 9.19845,134.059 9.5,131.5C 34.5,131.5 59.5,131.5 84.5,131.5 Z"/></g>
<g><path style="opacity:1" fill="#d8dadb" d="M 135.5,131.5 C 168.5,131.5 201.5,131.5 234.5,131.5C 233.71,132.794 232.71,133.961 231.5,135C 200.167,135.333 168.833,135.667 137.5,136C 136.058,136.377 135.058,137.21 134.5,138.5C 133.596,137.791 133.263,136.791 133.5,135.5C 133.66,133.847 134.326,132.514 135.5,131.5 Z"/></g>
<g><path style="opacity:0.29" fill="#14083c" d="M 135.5,131.5 C 168.996,130.502 202.663,130.168 236.5,130.5C 236.81,133.713 236.477,136.713 235.5,139.5C 235.5,139.167 235.5,138.833 235.5,138.5C 235.802,135.941 235.468,133.607 234.5,131.5C 201.5,131.5 168.5,131.5 135.5,131.5 Z"/></g>
<g><path style="opacity:1" fill="#d7d8da" d="M 302.5,131.5 C 301.657,133.173 300.324,134.34 298.5,135C 293.5,135.333 288.5,135.667 283.5,136C 282.619,136.708 281.953,137.542 281.5,138.5C 280.532,136.393 280.198,134.059 280.5,131.5C 287.833,131.5 295.167,131.5 302.5,131.5 Z"/></g>
<g><path style="opacity:0.212" fill="#010761" d="M 302.5,131.5 C 302.5,131.167 302.5,130.833 302.5,130.5C 304.552,131.053 304.885,132.053 303.5,133.5C 303.672,132.508 303.338,131.842 302.5,131.5 Z"/></g>
<g><path style="opacity:1" fill="#d3d4d7" d="M 367.5,131.5 C 368.167,131.5 368.5,131.833 368.5,132.5C 364.707,135.007 360.374,136.174 355.5,136C 354.058,136.377 353.058,137.21 352.5,138.5C 351.596,137.791 351.263,136.791 351.5,135.5C 351.263,134.209 351.596,133.209 352.5,132.5C 357.405,131.555 362.405,131.221 367.5,131.5 Z"/></g>
<g><path style="opacity:1" fill="#dbdcdd" d="M 423.5,131.5 C 450.005,131.169 476.339,131.502 502.5,132.5C 501.373,133.122 500.373,133.955 499.5,135C 475.167,135.667 450.833,135.667 426.5,135C 425.449,133.615 424.116,132.615 422.5,132C 422.728,131.601 423.062,131.435 423.5,131.5 Z"/></g>
<g><path style="opacity:0.788" fill="#383071" d="M 367.5,131.5 C 367.5,131.167 367.5,130.833 367.5,130.5C 369.408,131.486 370.408,133.152 370.5,135.5C 369.094,135.027 368.427,134.027 368.5,132.5C 368.5,131.833 368.167,131.5 367.5,131.5 Z"/></g>
<g><path style="opacity:1" fill="#4d4270" d="M 84.5,130.5 C 85.4972,130.47 86.1639,130.97 86.5,132C 85.8598,134.12 84.8598,135.954 83.5,137.5C 83.4431,136.391 83.1098,135.391 82.5,134.5C 83.1667,133.5 83.8333,132.5 84.5,131.5C 84.5,131.167 84.5,130.833 84.5,130.5 Z"/></g>
<g><path style="opacity:0.988" fill="#989899" d="M 391.5,140.5 C 396.776,154.66 402.442,168.66 408.5,182.5C 411.067,187.869 412.4,193.536 412.5,199.5C 410.052,200.473 407.385,200.806 404.5,200.5C 396.5,178.833 388.5,157.167 380.5,135.5C 385.246,134.964 388.746,136.964 391,141.5C 391.399,141.272 391.565,140.938 391.5,140.5 Z"/></g>
<g><path style="opacity:1" fill="#6b6a6a" d="M 82.5,134.5 C 83.1098,135.391 83.4431,136.391 83.5,137.5C 59.2413,138.49 34.908,138.823 10.5,138.5C 10.9528,137.542 11.6195,136.708 12.5,136C 35.876,135.813 59.2093,135.313 82.5,134.5 Z"/></g>
<g><path style="opacity:1" fill="#6b6a6a" d="M 234.5,131.5 C 235.468,133.607 235.802,135.941 235.5,138.5C 201.833,138.5 168.167,138.5 134.5,138.5C 135.058,137.21 136.058,136.377 137.5,136C 168.833,135.667 200.167,135.333 231.5,135C 232.71,133.961 233.71,132.794 234.5,131.5 Z"/></g>
<g><path style="opacity:1" fill="#68656c" d="M 302.5,131.5 C 303.338,131.842 303.672,132.508 303.5,133.5C 303.598,135.553 302.931,137.22 301.5,138.5C 294.833,138.5 288.167,138.5 281.5,138.5C 281.953,137.542 282.619,136.708 283.5,136C 288.5,135.667 293.5,135.333 298.5,135C 300.324,134.34 301.657,133.173 302.5,131.5 Z"/></g>
<g><path style="opacity:1" fill="#6b6a6a" d="M 423.5,130.5 C 423.5,130.833 423.5,131.167 423.5,131.5C 423.062,131.435 422.728,131.601 422.5,132C 424.116,132.615 425.449,133.615 426.5,135C 450.833,135.667 475.167,135.667 499.5,135C 500.373,133.955 501.373,133.122 502.5,132.5C 502.5,134.5 502.5,136.5 502.5,138.5C 475.94,139.144 449.606,138.477 423.5,136.5C 422.566,135.228 421.899,133.728 421.5,132C 421.836,130.97 422.503,130.47 423.5,130.5 Z"/></g>
<g><path style="opacity:1" fill="#a7bbda" d="M 406.5,124.5 C 407.695,126.751 408.695,129.085 409.5,131.5C 404.555,132.735 400.388,135.402 397,139.5C 396.506,141.134 396.34,142.801 396.5,144.5C 394.935,142.491 393.935,140.157 393.5,137.5C 393.343,136.127 393.51,134.793 394,133.5C 397.306,130.439 400.473,127.272 403.5,124C 404.577,123.53 405.577,123.697 406.5,124.5 Z"/></g>
<g><path style="opacity:1" fill="#a1bbe0" d="M 268.5,126.5 C 268.5,127.167 268.5,127.833 268.5,128.5C 268.5,131.167 268.5,133.833 268.5,136.5C 266.139,137.435 263.972,138.768 262,140.5C 260.27,138.398 258.437,138.565 256.5,141C 254.267,143.113 252.933,145.613 252.5,148.5C 251.24,139.957 253.74,132.957 260,127.5C 260.308,128.308 260.808,128.975 261.5,129.5C 263.577,127.918 265.91,126.918 268.5,126.5 Z"/></g>
<g><path style="opacity:1" fill="#686767" d="M 368.5,132.5 C 368.427,134.027 369.094,135.027 370.5,135.5C 370.5,136.5 370.5,137.5 370.5,138.5C 364.5,138.5 358.5,138.5 352.5,138.5C 353.058,137.21 354.058,136.377 355.5,136C 360.374,136.174 364.707,135.007 368.5,132.5 Z"/></g>
<g><path style="opacity:0.616" fill="#393174" d="M 84.5,130.5 C 84.5,130.833 84.5,131.167 84.5,131.5C 59.5,131.5 34.5,131.5 9.5,131.5C 9.19845,134.059 9.53178,136.393 10.5,138.5C 34.908,138.823 59.2413,138.49 83.5,137.5C 83.4226,138.75 82.756,139.583 81.5,140C 57.8333,140.667 34.1667,140.667 10.5,140C 8.65561,137.196 7.98895,134.03 8.5,130.5C 33.8333,130.5 59.1667,130.5 84.5,130.5 Z"/></g>
<g><path style="opacity:0.616" fill="#4d43a1" d="M 133.5,135.5 C 133.263,136.791 133.596,137.791 134.5,138.5C 168.167,138.5 201.833,138.5 235.5,138.5C 235.5,138.833 235.5,139.167 235.5,139.5C 201.571,140.659 167.571,140.826 133.5,140C 132.199,138.384 132.199,136.884 133.5,135.5 Z"/></g>
<g><path style="opacity:0.616" fill="#322b6a" d="M 302.5,130.5 C 302.5,130.833 302.5,131.167 302.5,131.5C 295.167,131.5 287.833,131.5 280.5,131.5C 280.198,134.059 280.532,136.393 281.5,138.5C 288.167,138.5 294.833,138.5 301.5,138.5C 301.389,139.117 301.056,139.617 300.5,140C 294.167,140.667 287.833,140.667 281.5,140C 279.656,137.196 278.989,134.03 279.5,130.5C 287.167,130.5 294.833,130.5 302.5,130.5 Z"/></g>
<g><path style="opacity:0.616" fill="#463c97" d="M 351.5,135.5 C 351.263,136.791 351.596,137.791 352.5,138.5C 358.5,138.5 364.5,138.5 370.5,138.5C 370.5,137.5 370.5,136.5 370.5,135.5C 371.801,136.884 371.801,138.384 370.5,140C 364.167,140.667 357.833,140.667 351.5,140C 350.199,138.384 350.199,136.884 351.5,135.5 Z"/></g>
<g><path style="opacity:1" fill="#57588a" d="M 405.5,115.5 C 411.679,129.206 417.346,143.206 422.5,157.5C 421.662,157.842 421.328,158.508 421.5,159.5C 420.833,158.833 420.167,158.167 419.5,157.5C 419.02,154.557 418.02,151.89 416.5,149.5C 414.557,143.338 412.224,137.338 409.5,131.5C 408.695,129.085 407.695,126.751 406.5,124.5C 405.499,121.828 404.499,119.162 403.5,116.5C 404.167,116.167 404.833,115.833 405.5,115.5 Z"/></g>
<g><path style="opacity:0.616" fill="#3c3276" d="M 423.5,131.5 C 423.5,131.167 423.5,130.833 423.5,130.5C 450.169,130.333 476.835,130.5 503.5,131C 505.091,134.275 504.758,137.275 502.5,140C 476.833,140.667 451.167,140.667 425.5,140C 424.027,139.29 423.36,138.124 423.5,136.5C 449.606,138.477 475.94,139.144 502.5,138.5C 502.5,136.5 502.5,134.5 502.5,132.5C 476.339,131.502 450.005,131.169 423.5,131.5 Z"/></g>
<g><path style="opacity:1" fill="#7294ca" d="M 124.5,86.5 C 124.5,87.5 124.5,88.5 124.5,89.5C 117.167,104.833 109.833,120.167 102.5,135.5C 97.9922,143.182 93.9922,151.182 90.5,159.5C 86.9922,165.182 83.9922,171.182 81.5,177.5C 75.6733,185.161 72.6733,193.827 72.5,203.5C 71.5184,200.038 71.185,196.371 71.5,192.5C 73.8333,187.167 76.1667,181.833 78.5,176.5C 93.8333,146.5 109.167,116.5 124.5,86.5 Z"/></g>
<g><path style="opacity:1" fill="#547ebb" d="M 124.5,127.5 C 122.73,132.833 120.397,137.833 117.5,142.5C 117.631,141.761 117.464,141.094 117,140.5C 113.701,143.226 110.201,145.559 106.5,147.5C 108.503,142.829 110.503,138.162 112.5,133.5C 113.117,133.611 113.617,133.944 114,134.5C 116.727,131.269 119.894,128.603 123.5,126.5C 124.107,126.624 124.44,126.957 124.5,127.5 Z"/></g>
<g><path style="opacity:1" fill="#4673b6" d="M 341.5,130.5 C 339.499,135.505 337.499,140.505 335.5,145.5C 331.895,147.927 328.395,150.593 325,153.5C 324.617,152.944 324.117,152.611 323.5,152.5C 324.833,149.5 326.167,146.5 327.5,143.5C 328.167,141.5 328.833,139.5 329.5,137.5C 333.483,135.194 337.483,132.861 341.5,130.5 Z"/></g>
<g><path style="opacity:1" fill="#dbe0ed" d="M 409.5,131.5 C 412.224,137.338 414.557,143.338 416.5,149.5C 416.681,152.553 416.848,155.553 417,158.5C 413.942,163.086 409.775,165.753 404.5,166.5C 401.273,159.377 398.606,152.044 396.5,144.5C 396.34,142.801 396.506,141.134 397,139.5C 400.388,135.402 404.555,132.735 409.5,131.5 Z"/></g>
<g><path style="opacity:0.975" fill="#a2a2a3" d="M 137.5,62.5 C 131.595,69.6436 127.261,77.6436 124.5,86.5C 109.167,116.5 93.8333,146.5 78.5,176.5C 78.6495,175.448 78.4828,174.448 78,173.5C 77.6667,173.833 77.3333,174.167 77,174.5C 75.1148,179.039 72.9481,182.705 70.5,185.5C 89.3839,146.732 108.551,108.065 128,69.5C 130.501,66.1517 133.668,63.8184 137.5,62.5 Z"/></g>
<g><path style="opacity:1" fill="#c2d2ea" d="M 268.5,136.5 C 268.5,139.833 268.5,143.167 268.5,146.5C 263.303,148.851 258.47,151.851 254,155.5C 253.333,164.5 253.333,173.5 254,182.5C 258.84,177.467 263.674,172.467 268.5,167.5C 268.5,172.833 268.5,178.167 268.5,183.5C 268.5,183.833 268.5,184.167 268.5,184.5C 266.185,186.142 263.851,187.808 261.5,189.5C 260.754,190.736 260.421,192.07 260.5,193.5C 258.236,194.581 256.069,195.915 254,197.5C 253.667,196.5 253.333,195.5 253,194.5C 252.5,179.17 252.333,163.837 252.5,148.5C 252.933,145.613 254.267,143.113 256.5,141C 258.437,138.565 260.27,138.398 262,140.5C 263.972,138.768 266.139,137.435 268.5,136.5 Z"/></g>
<g><path style="opacity:0.639" fill="#666874" d="M 235.5,148.5 C 235.5,148.833 235.5,149.167 235.5,149.5C 235.167,149.5 234.833,149.5 234.5,149.5C 198.427,149.174 162.427,149.507 126.5,150.5C 126.414,149.504 126.748,148.671 127.5,148C 163.669,147.169 199.669,147.336 235.5,148.5 Z"/></g>
<g><path style="opacity:0.639" fill="#61626e" d="M 374.5,148.5 C 374.5,148.833 374.5,149.167 374.5,149.5C 365.167,149.5 355.833,149.5 346.5,149.5C 346.771,151.38 346.104,152.713 344.5,153.5C 344.472,151.418 345.139,149.584 346.5,148C 356.009,147.176 365.343,147.342 374.5,148.5 Z"/></g>
<g><path style="opacity:0.639" fill="#686a75" d="M 502.5,148.5 C 502.5,148.833 502.5,149.167 502.5,149.5C 478.328,149.169 454.328,149.502 430.5,150.5C 429.662,150.158 429.328,149.492 429.5,148.5C 453.833,147.167 478.167,147.167 502.5,148.5 Z"/></g>
<g><path style="opacity:1" fill="#e3e4e5" d="M 75.5,150.5 C 74.8333,150.5 74.5,150.833 74.5,151.5C 73.391,151.557 72.391,151.89 71.5,152.5C 51.8305,152.667 32.1638,152.5 12.5,152C 11.8333,151.333 11.1667,150.667 10.5,150C 32.3372,149.171 54.0039,149.337 75.5,150.5 Z"/></g>
<g><path style="opacity:1" fill="#e0e0e2" d="M 234.5,149.5 C 234.047,150.458 233.381,151.292 232.5,152C 198.167,152.333 163.833,152.667 129.5,153C 128.09,154.372 126.423,155.205 124.5,155.5C 124.5,155.167 124.5,154.833 124.5,154.5C 124.66,152.847 125.326,151.514 126.5,150.5C 162.427,149.507 198.427,149.174 234.5,149.5 Z"/></g>
<g><path style="opacity:1" fill="#e0e1e2" d="M 295.5,149.5 C 295.167,150.5 294.5,151.167 293.5,151.5C 292.833,151.833 292.167,152.167 291.5,152.5C 287.698,153.12 284.365,152.286 281.5,150C 286.155,149.501 290.821,149.334 295.5,149.5 Z"/></g>
<g><path style="opacity:1" fill="#a2c6ee" d="M 333.5,127.5 C 332.167,130.833 330.833,134.167 329.5,137.5C 328.833,139.5 328.167,141.5 327.5,143.5C 326.127,143.343 324.793,143.51 323.5,144C 323.833,144.333 324.167,144.667 324.5,145C 321.692,147.471 318.859,149.971 316,152.5C 315.536,151.906 315.369,151.239 315.5,150.5C 316.969,145.426 318.636,140.426 320.5,135.5C 321.167,134.5 321.833,133.5 322.5,132.5C 322.843,134.225 323.843,134.725 325.5,134C 328.078,131.614 330.744,129.447 333.5,127.5 Z"/></g>
<g><path style="opacity:1" fill="#e1e2e3" d="M 374.5,149.5 C 374.196,150.15 373.863,150.817 373.5,151.5C 365.187,152.332 356.853,152.832 348.5,153C 347.529,154.481 346.196,155.315 344.5,155.5C 344.5,154.833 344.5,154.167 344.5,153.5C 346.104,152.713 346.771,151.38 346.5,149.5C 355.833,149.5 365.167,149.5 374.5,149.5 Z"/></g>
<g><path style="opacity:1" fill="#e3e4e5" d="M 430.5,150.5 C 454.328,149.502 478.328,149.169 502.5,149.5C 502.047,150.458 501.381,151.292 500.5,152C 477.761,152.822 455.094,152.655 432.5,151.5C 431.833,151.167 431.167,150.833 430.5,150.5 Z"/></g>
<g><path style="opacity:1" fill="#8086ad" d="M 268.5,128.5 C 269.167,131.167 269.833,133.833 270.5,136.5C 270.5,150.833 270.5,165.167 270.5,179.5C 269.833,180.833 269.167,182.167 268.5,183.5C 268.5,178.167 268.5,172.833 268.5,167.5C 268.5,160.5 268.5,153.5 268.5,146.5C 268.5,143.167 268.5,139.833 268.5,136.5C 268.5,133.833 268.5,131.167 268.5,128.5 Z"/></g>
<g><path style="opacity:1" fill="#443769" d="M 429.5,148.5 C 429.328,149.492 429.662,150.158 430.5,150.5C 431.167,150.833 431.833,151.167 432.5,151.5C 431.699,153.042 431.366,154.708 431.5,156.5C 429.337,154.046 428.67,151.38 429.5,148.5 Z"/></g>
<g><path style="opacity:1" fill="#43376f" d="M 76.5,148.5 C 77.403,151.092 76.7364,153.426 74.5,155.5C 74.5,154.167 74.5,152.833 74.5,151.5C 74.5,150.833 74.8333,150.5 75.5,150.5C 76.3382,150.158 76.6716,149.492 76.5,148.5 Z"/></g>
<g><path style="opacity:1" fill="#e3e7f3" d="M 268.5,146.5 C 268.5,153.5 268.5,160.5 268.5,167.5C 263.674,172.467 258.84,177.467 254,182.5C 253.333,173.5 253.333,164.5 254,155.5C 258.47,151.851 263.303,148.851 268.5,146.5 Z"/></g>
<g><path style="opacity:0.973" fill="#332a49" d="M 280.5,148.5 C 285.65,147.349 290.984,147.183 296.5,148C 297.216,151.096 296.549,153.93 294.5,156.5C 294.371,154.784 294.038,153.117 293.5,151.5C 294.5,151.167 295.167,150.5 295.5,149.5C 290.695,148.513 285.695,148.179 280.5,148.5 Z"/></g>
<g><path style="opacity:1" fill="#76777b" d="M 76.5,148.5 C 76.6716,149.492 76.3382,150.158 75.5,150.5C 54.0039,149.337 32.3372,149.171 10.5,150C 11.1667,150.667 11.8333,151.333 12.5,152C 32.1638,152.5 51.8305,152.667 71.5,152.5C 52.0043,153.332 32.3376,153.832 12.5,154C 11.7562,155.039 10.7562,155.539 9.5,155.5C 9.5,153.167 9.5,150.833 9.5,148.5C 31.8333,147.167 54.1667,147.167 76.5,148.5 Z"/></g>
<g><path style="opacity:1" fill="#7395c7" d="M 117.5,142.5 C 116.341,146.151 114.674,149.485 112.5,152.5C 112.483,150.972 111.816,150.472 110.5,151C 107.639,155.194 104.139,158.694 100,161.5C 100.829,158.148 101.996,154.815 103.5,151.5C 104.5,150.167 105.5,148.833 106.5,147.5C 110.201,145.559 113.701,143.226 117,140.5C 117.464,141.094 117.631,141.761 117.5,142.5 Z"/></g>
<g><path style="opacity:1" fill="#70779e" d="M 389.5,132.5 C 390.167,133.167 390.833,133.833 391.5,134.5C 392.167,135.5 392.833,136.5 393.5,137.5C 393.935,140.157 394.935,142.491 396.5,144.5C 398.606,152.044 401.273,159.377 404.5,166.5C 405.167,168.5 405.833,170.5 406.5,172.5C 407.305,174.915 408.305,177.249 409.5,179.5C 408.596,180.209 408.263,181.209 408.5,182.5C 402.442,168.66 396.776,154.66 391.5,140.5C 390.833,137.833 390.167,135.167 389.5,132.5 Z"/></g>
<g><path style="opacity:0.808" fill="#a5a6ae" d="M 280.5,148.5 C 285.695,148.179 290.695,148.513 295.5,149.5C 290.821,149.334 286.155,149.501 281.5,150C 284.365,152.286 287.698,153.12 291.5,152.5C 289.031,153.317 286.365,153.817 283.5,154C 282.619,154.708 281.953,155.542 281.5,156.5C 280.527,154.052 280.194,151.385 280.5,148.5 Z"/></g>
<g><path style="opacity:1" fill="#2c61ad" d="M 335.5,145.5 C 331.346,157.79 326.68,169.79 321.5,181.5C 321.103,180.475 320.437,180.308 319.5,181C 316.209,184.43 312.876,187.596 309.5,190.5C 313.97,177.756 318.637,165.09 323.5,152.5C 324.117,152.611 324.617,152.944 325,153.5C 328.395,150.593 331.895,147.927 335.5,145.5 Z"/></g>
<g><path style="opacity:1" fill="#676768" d="M 74.5,151.5 C 74.5,152.833 74.5,154.167 74.5,155.5C 52.7356,156.826 31.0689,156.826 9.5,155.5C 10.7562,155.539 11.7562,155.039 12.5,154C 32.3376,153.832 52.0043,153.332 71.5,152.5C 72.391,151.89 73.391,151.557 74.5,151.5 Z"/></g>
<g><path style="opacity:1" fill="#676768" d="M 293.5,151.5 C 294.038,153.117 294.371,154.784 294.5,156.5C 290.167,156.5 285.833,156.5 281.5,156.5C 281.953,155.542 282.619,154.708 283.5,154C 286.365,153.817 289.031,153.317 291.5,152.5C 292.167,152.167 292.833,151.833 293.5,151.5 Z"/></g>
<g><path style="opacity:1" fill="#665e75" d="M 502.5,148.5 C 503.748,149.334 504.415,150.667 504.5,152.5C 504.449,154.1 504.116,155.6 503.5,157C 479.33,157.83 455.33,157.663 431.5,156.5C 431.366,154.708 431.699,153.042 432.5,151.5C 455.094,152.655 477.761,152.822 500.5,152C 501.381,151.292 502.047,150.458 502.5,149.5C 502.5,149.167 502.5,148.833 502.5,148.5 Z"/></g>
<g><path style="opacity:0.914" fill="#707072" d="M 234.5,149.5 C 234.833,149.5 235.167,149.5 235.5,149.5C 235.5,151.833 235.5,154.167 235.5,156.5C 198.33,156.832 161.33,156.498 124.5,155.5C 126.423,155.205 128.09,154.372 129.5,153C 163.833,152.667 198.167,152.333 232.5,152C 233.381,151.292 234.047,150.458 234.5,149.5 Z"/></g>
<g><path style="opacity:0.914" fill="#6a696e" d="M 374.5,148.5 C 376.614,149.784 377.614,151.784 377.5,154.5C 372.376,155.829 366.876,156.495 361,156.5C 355.323,156.499 349.823,156.166 344.5,155.5C 346.196,155.315 347.529,154.481 348.5,153C 356.853,152.832 365.187,152.332 373.5,151.5C 373.863,150.817 374.196,150.15 374.5,149.5C 374.5,149.167 374.5,148.833 374.5,148.5 Z"/></g>
<g><path style="opacity:0.357" fill="#000b79" d="M 9.5,148.5 C 9.5,150.833 9.5,153.167 9.5,155.5C 31.0689,156.826 52.7356,156.826 74.5,155.5C 52.8587,157.489 30.8587,158.156 8.5,157.5C 8.19,154.287 8.52333,151.287 9.5,148.5 Z"/></g>
<g><path style="opacity:0.357" fill="#000a7e" d="M 235.5,148.5 C 236.477,151.287 236.81,154.287 236.5,157.5C 198.833,157.5 161.167,157.5 123.5,157.5C 123.263,156.209 123.596,155.209 124.5,154.5C 124.5,154.833 124.5,155.167 124.5,155.5C 161.33,156.498 198.33,156.832 235.5,156.5C 235.5,154.167 235.5,151.833 235.5,149.5C 235.5,149.167 235.5,148.833 235.5,148.5 Z"/></g>
<g><path style="opacity:0.357" fill="#020c67" d="M 280.5,148.5 C 280.194,151.385 280.527,154.052 281.5,156.5C 285.833,156.5 290.167,156.5 294.5,156.5C 289.695,157.487 284.695,157.821 279.5,157.5C 279.19,154.287 279.523,151.287 280.5,148.5 Z"/></g>
<g><path style="opacity:0.357" fill="#050b79" d="M 344.5,153.5 C 344.5,154.167 344.5,154.833 344.5,155.5C 349.823,156.166 355.323,156.499 361,156.5C 366.876,156.495 372.376,155.829 377.5,154.5C 378.404,155.209 378.737,156.209 378.5,157.5C 366.833,157.5 355.167,157.5 343.5,157.5C 343.232,155.901 343.566,154.568 344.5,153.5 Z"/></g>
<g><path style="opacity:1" fill="#b6c5e0" d="M 416.5,149.5 C 418.02,151.89 419.02,154.557 419.5,157.5C 419.66,159.199 419.494,160.866 419,162.5C 415.833,165.667 412.667,168.833 409.5,172C 408.552,172.483 407.552,172.649 406.5,172.5C 405.833,170.5 405.167,168.5 404.5,166.5C 409.775,165.753 413.942,163.086 417,158.5C 416.848,155.553 416.681,152.553 416.5,149.5 Z"/></g>
<g><path style="opacity:0.33" fill="#04000a" d="M 339.5,166.5 C 346.492,165.834 353.659,165.5 361,165.5C 368.533,165.503 375.699,166.169 382.5,167.5C 382.167,167.5 381.833,167.5 381.5,167.5C 367.677,166.504 353.677,166.171 339.5,166.5 Z"/></g>
<g><path style="opacity:1" fill="#7aafe6" d="M 327.5,143.5 C 326.167,146.5 324.833,149.5 323.5,152.5C 318.637,165.09 313.97,177.756 309.5,190.5C 308.833,191.5 308.167,192.5 307.5,193.5C 307.631,192.761 307.464,192.094 307,191.5C 302.991,195.676 298.824,199.676 294.5,203.5C 300.933,185.52 307.933,167.853 315.5,150.5C 315.369,151.239 315.536,151.906 316,152.5C 318.859,149.971 321.692,147.471 324.5,145C 324.167,144.667 323.833,144.333 323.5,144C 324.793,143.51 326.127,143.343 327.5,143.5 Z"/></g>
<g><path style="opacity:1" fill="#dbdcde" d="M 118.5,166.5 C 157.167,166.5 195.833,166.5 234.5,166.5C 233.71,167.794 232.71,168.961 231.5,170C 194.5,170.333 157.5,170.667 120.5,171C 119.429,171.852 118.429,172.685 117.5,173.5C 116.596,172.791 116.263,171.791 116.5,170.5C 116.66,168.847 117.326,167.514 118.5,166.5 Z"/></g>
<g><path style="opacity:0.292" fill="#13093a" d="M 118.5,166.5 C 157.663,165.501 196.996,165.168 236.5,165.5C 236.81,168.713 236.477,171.713 235.5,174.5C 235.5,174.167 235.5,173.833 235.5,173.5C 235.802,170.941 235.468,168.607 234.5,166.5C 195.833,166.5 157.167,166.5 118.5,166.5 Z"/></g>
<g><path style="opacity:1" fill="#dadbdd" d="M 339.5,166.5 C 353.677,166.171 367.677,166.504 381.5,167.5C 380.733,168.172 380.066,169.005 379.5,170C 366.833,170.333 354.167,170.667 341.5,171C 339.494,173.048 338.494,172.548 338.5,169.5C 338.263,168.209 338.596,167.209 339.5,166.5 Z"/></g>
<g><path style="opacity:0.247" fill="#ff055a" d="M 437.5,165.5 C 437.5,165.833 437.5,166.167 437.5,166.5C 436.662,166.842 436.328,167.508 436.5,168.5C 436.5,168.833 436.5,169.167 436.5,169.5C 435.876,169.083 435.543,168.416 435.5,167.5C 435.747,166.287 436.414,165.62 437.5,165.5 Z"/></g>
<g><path style="opacity:1" fill="#dcdddf" d="M 437.5,166.5 C 459.34,166.169 481.006,166.503 502.5,167.5C 501.373,168.122 500.373,168.955 499.5,170C 479.833,170.667 460.167,170.667 440.5,170C 439.437,168.812 438.103,168.312 436.5,168.5C 436.328,167.508 436.662,166.842 437.5,166.5 Z"/></g>
<g><path style="opacity:0.329" fill="#0d0329" d="M 67.5,169.5 C 67.5,168.833 67.5,168.167 67.5,167.5C 48.3405,166.503 29.0072,166.17 9.5,166.5C 9.5,168.833 9.5,171.167 9.5,173.5C 9.5,173.833 9.5,174.167 9.5,174.5C 8.52333,171.713 8.19,168.713 8.5,165.5C 28.5,165.5 48.5,165.5 68.5,165.5C 68.7678,167.099 68.4345,168.432 67.5,169.5 Z"/></g>
<g><path style="opacity:0.106" fill="#040468" d="M 288.5,166.5 C 288.5,166.167 288.5,165.833 288.5,165.5C 289.586,165.62 290.253,166.287 290.5,167.5C 290.457,168.416 290.124,169.083 289.5,169.5C 289.737,168.209 289.404,167.209 288.5,166.5 Z"/></g>
<g><path style="opacity:1" fill="#d7d7d9" d="M 67.5,167.5 C 66.0267,168.072 64.6934,168.905 63.5,170C 46.5,170.333 29.5,170.667 12.5,171C 11.6195,171.708 10.9528,172.542 10.5,173.5C 10.1667,173.5 9.83333,173.5 9.5,173.5C 9.5,171.167 9.5,168.833 9.5,166.5C 29.0072,166.17 48.3405,166.503 67.5,167.5 Z"/></g>
<g><path style="opacity:0.282" fill="#080127" d="M 288.5,165.5 C 288.5,165.833 288.5,166.167 288.5,166.5C 285.833,166.5 283.167,166.5 280.5,166.5C 280.5,168.833 280.5,171.167 280.5,173.5C 280.5,173.833 280.5,174.167 280.5,174.5C 279.523,171.713 279.19,168.713 279.5,165.5C 282.5,165.5 285.5,165.5 288.5,165.5 Z"/></g>
<g><path style="opacity:0.808" fill="#bdbec2" d="M 288.5,166.5 C 286.249,169.295 283.582,171.628 280.5,173.5C 280.5,171.167 280.5,168.833 280.5,166.5C 283.167,166.5 285.833,166.5 288.5,166.5 Z"/></g>
<g><path style="opacity:1" fill="#58506f" d="M 288.5,166.5 C 289.404,167.209 289.737,168.209 289.5,169.5C 288.793,175.314 285.793,176.98 280.5,174.5C 280.5,174.167 280.5,173.833 280.5,173.5C 283.582,171.628 286.249,169.295 288.5,166.5 Z"/></g>
<g><path style="opacity:1" fill="#6b6a6a" d="M 67.5,167.5 C 67.5,168.167 67.5,168.833 67.5,169.5C 63.2879,172.037 58.6212,173.203 53.5,173C 39.1705,173.5 24.8372,173.667 10.5,173.5C 10.9528,172.542 11.6195,171.708 12.5,171C 29.5,170.667 46.5,170.333 63.5,170C 64.6934,168.905 66.0267,168.072 67.5,167.5 Z"/></g>
<g><path style="opacity:1" fill="#9db8de" d="M 103.5,151.5 C 101.996,154.815 100.829,158.148 100,161.5C 104.139,158.694 107.639,155.194 110.5,151C 111.816,150.472 112.483,150.972 112.5,152.5C 111.833,154.5 111.167,156.5 110.5,158.5C 108.231,162.038 106.231,165.705 104.5,169.5C 104.483,167.972 103.816,167.472 102.5,168C 99.0215,170.15 95.8549,172.65 93,175.5C 94.2811,171.93 95.2811,168.263 96,164.5C 90.8449,168.769 86.0116,173.103 81.5,177.5C 83.9922,171.182 86.9922,165.182 90.5,159.5C 95.0487,157.131 99.2154,154.131 103,150.5C 103.399,150.728 103.565,151.062 103.5,151.5 Z"/></g>
<g><path style="opacity:1" fill="#6b6a6a" d="M 234.5,166.5 C 235.468,168.607 235.802,170.941 235.5,173.5C 196.167,173.5 156.833,173.5 117.5,173.5C 118.429,172.685 119.429,171.852 120.5,171C 157.5,170.667 194.5,170.333 231.5,170C 232.71,168.961 233.71,167.794 234.5,166.5 Z"/></g>
<g><path style="opacity:1" fill="#6b6a6b" d="M 502.5,167.5 C 502.5,169.5 502.5,171.5 502.5,173.5C 480.602,174.139 458.935,173.472 437.5,171.5C 436.662,171.158 436.328,170.492 436.5,169.5C 436.5,169.167 436.5,168.833 436.5,168.5C 438.103,168.312 439.437,168.812 440.5,170C 460.167,170.667 479.833,170.667 499.5,170C 500.373,168.955 501.373,168.122 502.5,167.5 Z"/></g>
<g><path style="opacity:1" fill="#6c89bd" d="M 319.5,134.5 C 319.5,135.167 319.833,135.5 320.5,135.5C 318.636,140.426 316.969,145.426 315.5,150.5C 307.933,167.853 300.933,185.52 294.5,203.5C 292.33,207.984 290.33,212.65 288.5,217.5C 288.624,218.107 288.957,218.44 289.5,218.5C 295.491,218.966 301.491,219.299 307.5,219.5C 308.925,217.969 309.591,218.302 309.5,220.5C 309.158,221.338 308.492,221.672 307.5,221.5C 300.167,221.5 292.833,221.5 285.5,221.5C 296.027,192.124 307.36,163.124 319.5,134.5 Z"/></g>
<g><path style="opacity:1" fill="#686868" d="M 381.5,167.5 C 381.833,167.5 382.167,167.5 382.5,167.5C 382.517,169.565 382.85,171.565 383.5,173.5C 367.797,174.151 352.464,173.484 337.5,171.5C 337.328,170.508 337.662,169.842 338.5,169.5C 338.494,172.548 339.494,173.048 341.5,171C 354.167,170.667 366.833,170.333 379.5,170C 380.066,169.005 380.733,168.172 381.5,167.5 Z"/></g>
<g><path style="opacity:1" fill="#87a4cf" d="M 419.5,157.5 C 420.167,158.167 420.833,158.833 421.5,159.5C 422.167,162.167 422.833,164.833 423.5,167.5C 423.649,168.552 423.483,169.552 423,170.5C 419.281,173.097 416.114,176.263 413.5,180C 412.207,180.49 410.873,180.657 409.5,180.5C 409.5,180.167 409.5,179.833 409.5,179.5C 408.305,177.249 407.305,174.915 406.5,172.5C 407.552,172.649 408.552,172.483 409.5,172C 412.667,168.833 415.833,165.667 419,162.5C 419.494,160.866 419.66,159.199 419.5,157.5 Z"/></g>
<g><path style="opacity:0.69" fill="#595b70" d="M 67.5,169.5 C 67.3404,171.153 66.6737,172.486 65.5,173.5C 46.9097,174.486 28.243,174.82 9.5,174.5C 9.5,174.167 9.5,173.833 9.5,173.5C 9.83333,173.5 10.1667,173.5 10.5,173.5C 24.8372,173.667 39.1705,173.5 53.5,173C 58.6212,173.203 63.2879,172.037 67.5,169.5 Z"/></g>
<g><path style="opacity:0.983" fill="#9c9c9c" d="M 78.5,176.5 C 76.1667,181.833 73.8333,187.167 71.5,192.5C 68.8491,201.731 70.8491,209.898 77.5,217C 79.5,218 81.5,219 83.5,220C 104.78,221.455 126.113,221.955 147.5,221.5C 150.305,222.319 153.305,222.819 156.5,223C 154.5,223.333 152.5,223.667 150.5,224C 153.695,224.181 156.695,224.681 159.5,225.5C 133.165,225.667 106.831,225.5 80.5,225C 69.2051,222.869 63.5384,216.036 63.5,204.5C 63.8931,197.393 66.2264,191.06 70.5,185.5C 72.9481,182.705 75.1148,179.039 77,174.5C 77.3333,174.167 77.6667,173.833 78,173.5C 78.4828,174.448 78.6495,175.448 78.5,176.5 Z"/></g>
<g><path style="opacity:0.925" fill="#585b86" d="M 110.5,158.5 C 111.338,158.842 111.672,159.508 111.5,160.5C 106.247,172.841 100.58,185.007 94.5,197C 96.3146,197.757 97.9812,198.59 99.5,199.5C 97.901,199.232 96.5676,199.566 95.5,200.5C 93.5221,199.683 92.5221,198.183 92.5,196C 94.3673,191.1 96.3673,186.267 98.5,181.5C 101.008,177.818 103.008,173.818 104.5,169.5C 106.231,165.705 108.231,162.038 110.5,158.5 Z"/></g>
<g><path style="opacity:0.69" fill="#473e73" d="M 116.5,170.5 C 116.263,171.791 116.596,172.791 117.5,173.5C 156.833,173.5 196.167,173.5 235.5,173.5C 235.5,173.833 235.5,174.167 235.5,174.5C 195.67,175.499 155.67,175.832 115.5,175.5C 115.216,173.585 115.549,171.919 116.5,170.5 Z"/></g>
<g><path style="opacity:0.69" fill="#555871" d="M 337.5,171.5 C 352.464,173.484 367.797,174.151 383.5,173.5C 368.342,174.496 353.009,174.83 337.5,174.5C 336.167,173.5 336.167,172.5 337.5,171.5 Z"/></g>
<g><path style="opacity:0.69" fill="#372f58" d="M 437.5,166.5 C 437.5,166.167 437.5,165.833 437.5,165.5C 459.503,165.333 481.503,165.5 503.5,166C 504.833,169 504.833,172 503.5,175C 481.833,175.667 460.167,175.667 438.5,175C 437.663,173.989 437.33,172.822 437.5,171.5C 458.935,173.472 480.602,174.139 502.5,173.5C 502.5,171.5 502.5,169.5 502.5,167.5C 481.006,166.503 459.34,166.169 437.5,166.5 Z"/></g>
<g><path style="opacity:0.165" fill="#000071" d="M 65.5,173.5 C 56.5248,174.832 47.1914,175.498 37.5,175.5C 27.9939,175.5 18.6606,175.166 9.5,174.5C 28.243,174.82 46.9097,174.486 65.5,173.5 Z"/></g>
<g><path style="opacity:0.165" fill="#100871" d="M 382.5,167.5 C 384.428,169.601 385.095,171.934 384.5,174.5C 368.672,175.827 353.005,175.827 337.5,174.5C 353.009,174.83 368.342,174.496 383.5,173.5C 382.85,171.565 382.517,169.565 382.5,167.5 Z"/></g>
<g><path style="opacity:1" fill="#707ea4" d="M 250.5,78.5 C 251.167,78.5 251.5,78.8333 251.5,79.5C 251.168,126.67 251.501,173.67 252.5,220.5C 258.69,220.177 264.69,220.51 270.5,221.5C 263.833,221.5 257.167,221.5 250.5,221.5C 250.5,183.5 250.5,145.5 250.5,107.5C 250.5,97.8333 250.5,88.1667 250.5,78.5 Z"/></g>
<g><path style="opacity:1" fill="#668cc3" d="M 423.5,167.5 C 424.931,168.78 425.598,170.447 425.5,172.5C 422.093,176.75 418.426,180.917 414.5,185C 411.709,185.038 410.042,183.538 409.5,180.5C 410.873,180.657 412.207,180.49 413.5,180C 416.114,176.263 419.281,173.097 423,170.5C 423.483,169.552 423.649,168.552 423.5,167.5 Z"/></g>
<g><path style="opacity:1" fill="#c4d6ef" d="M 104.5,169.5 C 103.008,173.818 101.008,177.818 98.5,181.5C 98.6677,176.468 97.6677,176.301 95.5,181C 92.7583,182.07 90.2583,183.57 88,185.5C 87.6667,184.833 87.3333,184.167 87,183.5C 82.5084,188.552 78.0084,192.552 73.5,195.5C 74.0209,199.481 74.3542,203.481 74.5,207.5C 73.8333,206.167 73.1667,204.833 72.5,203.5C 72.6733,193.827 75.6733,185.161 81.5,177.5C 86.0116,173.103 90.8449,168.769 96,164.5C 95.2811,168.263 94.2811,171.93 93,175.5C 95.8549,172.65 99.0215,170.15 102.5,168C 103.816,167.472 104.483,167.972 104.5,169.5 Z"/></g>
<g><path style="opacity:1" fill="#283b7b" d="M 353.5,99.5 C 354.167,99.8333 354.833,100.167 355.5,100.5C 342.737,135.465 329.404,170.132 315.5,204.5C 315.672,203.508 315.338,202.842 314.5,202.5C 314.963,199.779 315.629,197.112 316.5,194.5C 318.734,190.478 320.401,186.144 321.5,181.5C 326.68,169.79 331.346,157.79 335.5,145.5C 337.499,140.505 339.499,135.505 341.5,130.5C 343.833,124.5 346.167,118.5 348.5,112.5C 349.972,108.083 351.638,103.75 353.5,99.5 Z"/></g>
<g><path style="opacity:1" fill="#265dab" d="M 427.5,177.5 C 430.601,183.943 433.434,190.61 436,197.5C 437.186,203.704 436.019,209.371 432.5,214.5C 430.002,215.912 427.336,217.079 424.5,218C 414.172,218.5 403.839,218.666 393.5,218.5C 394.543,215.944 396.21,213.777 398.5,212C 403.019,211.825 407.353,211.325 411.5,210.5C 420.782,211.562 425.448,207.562 425.5,198.5C 425.5,197.833 425.5,197.167 425.5,196.5C 424.658,193.476 423.658,190.476 422.5,187.5C 423.269,184.966 424.769,182.966 427,181.5C 427.49,180.207 427.657,178.873 427.5,177.5 Z"/></g>
<g><path style="opacity:1" fill="#223678" d="M 422.5,157.5 C 429.527,171.906 435.194,186.906 439.5,202.5C 439.48,203.726 439.147,204.726 438.5,205.5C 438.631,204.761 438.464,204.094 438,203.5C 437.261,206.546 436.428,209.546 435.5,212.5C 434.5,213.167 433.5,213.833 432.5,214.5C 436.019,209.371 437.186,203.704 436,197.5C 433.434,190.61 430.601,183.943 427.5,177.5C 427.598,175.447 426.931,173.78 425.5,172.5C 425.598,170.447 424.931,168.78 423.5,167.5C 422.833,164.833 422.167,162.167 421.5,159.5C 421.328,158.508 421.662,157.842 422.5,157.5 Z"/></g>
<g><path style="opacity:1" fill="#416daf" d="M 425.5,172.5 C 426.931,173.78 427.598,175.447 427.5,177.5C 427.657,178.873 427.49,180.207 427,181.5C 424.769,182.966 423.269,184.966 422.5,187.5C 423.658,190.476 424.658,193.476 425.5,196.5C 422.15,196.335 418.817,196.502 415.5,197C 414.309,197.698 413.309,198.531 412.5,199.5C 412.4,193.536 411.067,187.869 408.5,182.5C 408.263,181.209 408.596,180.209 409.5,179.5C 409.5,179.833 409.5,180.167 409.5,180.5C 410.042,183.538 411.709,185.038 414.5,185C 418.426,180.917 422.093,176.75 425.5,172.5 Z"/></g>
<g><path style="opacity:0.675" fill="#717e9e" d="M 235.5,199.5 C 234.71,198.391 234.21,197.058 234,195.5C 233.79,197.058 233.29,198.391 232.5,199.5C 232.5,198.833 232.5,198.167 232.5,197.5C 230.085,196.186 227.252,195.519 224,195.5C 221.167,195.833 218.333,196.167 215.5,196.5C 214.089,198.914 212.089,200.581 209.5,201.5C 178.004,200.502 146.338,200.168 114.5,200.5C 109.305,200.821 104.305,200.487 99.5,199.5C 135.167,199.5 170.833,199.5 206.5,199.5C 206.5,198.5 206.5,197.5 206.5,196.5C 209.516,196.159 212.182,194.993 214.5,193C 221.5,192.333 228.5,192.333 235.5,193C 236.811,195.274 236.811,197.44 235.5,199.5 Z"/></g>
<g><path style="opacity:1" fill="#547ebb" d="M 321.5,181.5 C 320.401,186.144 318.734,190.478 316.5,194.5C 316.103,193.475 315.437,193.308 314.5,194C 311.794,196.676 308.794,198.842 305.5,200.5C 306.167,198.167 306.833,195.833 307.5,193.5C 308.167,192.5 308.833,191.5 309.5,190.5C 312.876,187.596 316.209,184.43 319.5,181C 320.437,180.308 321.103,180.475 321.5,181.5 Z"/></g>
<g><path style="opacity:1" fill="#dfe5f2" d="M 98.5,181.5 C 96.3673,186.267 94.3673,191.1 92.5,196C 92.5221,198.183 93.5221,199.683 95.5,200.5C 96.209,201.404 97.209,201.737 98.5,201.5C 100.969,202.317 103.635,202.817 106.5,203C 102.628,208.601 97.2946,210.935 90.5,210C 88.1807,213.847 84.8474,215.68 80.5,215.5C 77.3528,213.687 75.3528,211.02 74.5,207.5C 74.3542,203.481 74.0209,199.481 73.5,195.5C 78.0084,192.552 82.5084,188.552 87,183.5C 87.3333,184.167 87.6667,184.833 88,185.5C 90.2583,183.57 92.7583,182.07 95.5,181C 97.6677,176.301 98.6677,176.468 98.5,181.5 Z"/></g>
<g><path style="opacity:1" fill="#e6ecf7" d="M 232.5,197.5 C 223.388,204.042 214.722,211.042 206.5,218.5C 196.145,218.832 185.812,218.499 175.5,217.5C 178.204,214.929 181.204,212.763 184.5,211C 183.906,210.536 183.239,210.369 182.5,210.5C 185.06,207.542 188.06,205.042 191.5,203C 197.016,202.827 202.349,202.327 207.5,201.5C 208.167,201.5 208.833,201.5 209.5,201.5C 212.089,200.581 214.089,198.914 215.5,196.5C 218.333,196.167 221.167,195.833 224,195.5C 227.252,195.519 230.085,196.186 232.5,197.5 Z"/></g>
<g><path style="opacity:1" fill="#5e86c0" d="M 268.5,184.5 C 268.5,188.833 268.5,193.167 268.5,197.5C 263.939,200.745 261.273,205.078 260.5,210.5C 260.5,204.833 260.5,199.167 260.5,193.5C 260.421,192.07 260.754,190.736 261.5,189.5C 263.851,187.808 266.185,186.142 268.5,184.5 Z"/></g>
<g><path style="opacity:1" fill="#5a85be" d="M 425.5,196.5 C 425.5,197.167 425.5,197.833 425.5,198.5C 420.462,197.691 416.128,198.857 412.5,202C 405.809,202.169 399.142,202.669 392.5,203.5C 394.984,205.483 397.317,207.65 399.5,210C 403.486,210.499 407.486,210.666 411.5,210.5C 407.353,211.325 403.019,211.825 398.5,212C 396.21,213.777 394.543,215.944 393.5,218.5C 392.167,218.5 391.5,219.167 391.5,220.5C 390.509,214.021 390.176,207.354 390.5,200.5C 395.066,199.203 399.733,199.203 404.5,200.5C 407.385,200.806 410.052,200.473 412.5,199.5C 413.309,198.531 414.309,197.698 415.5,197C 418.817,196.502 422.15,196.335 425.5,196.5 Z"/></g>
<g><path style="opacity:1" fill="#90bcea" d="M 307.5,193.5 C 306.833,195.833 306.167,198.167 305.5,200.5C 303.942,203.292 302.609,206.292 301.5,209.5C 297.432,212.521 293.432,215.521 289.5,218.5C 288.957,218.44 288.624,218.107 288.5,217.5C 290.33,212.65 292.33,207.984 294.5,203.5C 298.824,199.676 302.991,195.676 307,191.5C 307.464,192.094 307.631,192.761 307.5,193.5 Z"/></g>
<g><path style="opacity:1" fill="#77aee8" d="M 425.5,198.5 C 425.448,207.562 420.782,211.562 411.5,210.5C 407.486,210.666 403.486,210.499 399.5,210C 397.317,207.65 394.984,205.483 392.5,203.5C 399.142,202.669 405.809,202.169 412.5,202C 416.128,198.857 420.462,197.691 425.5,198.5 Z"/></g>
<g><path style="opacity:1" fill="#80b1e8" d="M 114.5,200.5 C 146.338,200.168 178.004,200.502 209.5,201.5C 208.833,201.5 208.167,201.5 207.5,201.5C 199.167,201.5 190.833,201.5 182.5,201.5C 176.79,201.471 171.123,201.971 165.5,203C 162.334,205 159.668,207.5 157.5,210.5C 155.833,210.5 154.167,210.5 152.5,210.5C 143.5,210.5 134.5,210.5 125.5,210.5C 124.833,210.5 124.167,210.5 123.5,210.5C 128,209.545 131.667,207.045 134.5,203C 127.702,202.055 121.035,201.222 114.5,200.5 Z"/></g>
<g><path style="opacity:1" fill="#9fc5ee" d="M 182.5,201.5 C 177.378,202.95 173.378,205.95 170.5,210.5C 167.5,210.5 164.5,210.5 161.5,210.5C 160.167,210.5 158.833,210.5 157.5,210.5C 159.668,207.5 162.334,205 165.5,203C 171.123,201.971 176.79,201.471 182.5,201.5 Z"/></g>
<g><path style="opacity:1" fill="#9ec2ec" d="M 99.5,199.5 C 104.305,200.487 109.305,200.821 114.5,200.5C 121.035,201.222 127.702,202.055 134.5,203C 131.667,207.045 128,209.545 123.5,210.5C 121.833,210.5 120.167,210.5 118.5,210.5C 116.5,210.5 114.5,210.5 112.5,210.5C 115.721,208.632 118.721,206.298 121.5,203.5C 113.927,201.862 106.26,201.195 98.5,201.5C 97.209,201.737 96.209,201.404 95.5,200.5C 96.5676,199.566 97.901,199.232 99.5,199.5 Z"/></g>
<g><path style="opacity:1" fill="#bed7f3" d="M 182.5,201.5 C 190.833,201.5 199.167,201.5 207.5,201.5C 202.349,202.327 197.016,202.827 191.5,203C 188.06,205.042 185.06,207.542 182.5,210.5C 179.833,210.5 177.167,210.5 174.5,210.5C 173.167,210.5 171.833,210.5 170.5,210.5C 173.378,205.95 177.378,202.95 182.5,201.5 Z"/></g>
<g><path style="opacity:0.729" fill="#68749e" d="M 438.5,205.5 C 438.59,208.152 437.924,210.485 436.5,212.5C 436.167,212.5 435.833,212.5 435.5,212.5C 436.428,209.546 437.261,206.546 438,203.5C 438.464,204.094 438.631,204.761 438.5,205.5 Z"/></g>
<g><path style="opacity:1" fill="#2e63ae" d="M 268.5,197.5 C 268.5,204.5 268.5,211.5 268.5,218.5C 263.5,218.5 258.5,218.5 253.5,218.5C 255.833,215.833 258.167,213.167 260.5,210.5C 261.273,205.078 263.939,200.745 268.5,197.5 Z"/></g>
<g><path style="opacity:1" fill="#244184" d="M 270.5,179.5 C 270.328,180.492 270.662,181.158 271.5,181.5C 271.829,195.01 271.496,208.344 270.5,221.5C 264.69,220.51 258.69,220.177 252.5,220.5C 252.328,219.508 252.662,218.842 253.5,218.5C 258.5,218.5 263.5,218.5 268.5,218.5C 268.5,211.5 268.5,204.5 268.5,197.5C 268.5,193.167 268.5,188.833 268.5,184.5C 268.5,184.167 268.5,183.833 268.5,183.5C 269.167,182.167 269.833,180.833 270.5,179.5 Z"/></g>
<g><path style="opacity:0.967" fill="#9c9c9c" d="M 389.5,202.5 C 389.5,208.833 389.5,215.167 389.5,221.5C 387.5,222.833 385.833,224.5 384.5,226.5C 383.345,219.679 383.179,212.679 384,205.5C 385.741,204.242 387.574,203.242 389.5,202.5 Z"/></g>
<g><path style="opacity:1" fill="#84a1cc" d="M 316.5,194.5 C 315.629,197.112 314.963,199.779 314.5,202.5C 311.6,207.848 309.267,213.515 307.5,219.5C 301.491,219.299 295.491,218.966 289.5,218.5C 293.432,215.521 297.432,212.521 301.5,209.5C 302.609,206.292 303.942,203.292 305.5,200.5C 308.794,198.842 311.794,196.676 314.5,194C 315.437,193.308 316.103,193.475 316.5,194.5 Z"/></g>
<g><path style="opacity:1" fill="#547ebc" d="M 118.5,210.5 C 120.167,210.5 121.833,210.5 123.5,210.5C 124.167,210.5 124.833,210.5 125.5,210.5C 124.535,214.46 122.201,217.126 118.5,218.5C 116.167,218.5 113.833,218.5 111.5,218.5C 113.978,216.197 116.645,214.031 119.5,212C 118.944,211.617 118.611,211.117 118.5,210.5 Z"/></g>
<g><path style="opacity:1" fill="#7099d1" d="M 251.5,79.5 C 252.483,83.2984 252.817,87.2984 252.5,91.5C 252.121,96.2973 252.621,100.964 254,105.5C 255.777,103.21 257.944,101.543 260.5,100.5C 260.104,108.253 260.604,115.92 262,123.5C 263.191,120.466 265.358,118.799 268.5,118.5C 268.5,121.167 268.5,123.833 268.5,126.5C 265.91,126.918 263.577,127.918 261.5,129.5C 260.808,128.975 260.308,128.308 260,127.5C 253.74,132.957 251.24,139.957 252.5,148.5C 252.333,163.837 252.5,179.17 253,194.5C 253.333,195.5 253.667,196.5 254,197.5C 256.069,195.915 258.236,194.581 260.5,193.5C 260.5,199.167 260.5,204.833 260.5,210.5C 258.167,213.167 255.833,215.833 253.5,218.5C 252.662,218.842 252.328,219.508 252.5,220.5C 251.501,173.67 251.168,126.67 251.5,79.5 Z"/></g>
<g><path style="opacity:1" fill="#3064af" d="M 125.5,210.5 C 134.5,210.5 143.5,210.5 152.5,210.5C 148.906,212.424 145.906,215.09 143.5,218.5C 135.167,218.5 126.833,218.5 118.5,218.5C 122.201,217.126 124.535,214.46 125.5,210.5 Z"/></g>
<g><path style="opacity:1" fill="#4a5082" d="M 235.5,199.5 C 235.541,207.757 232.208,214.091 225.5,218.5C 225.158,217.662 224.492,217.328 223.5,217.5C 229.527,213.127 232.527,207.127 232.5,199.5C 233.29,198.391 233.79,197.058 234,195.5C 234.21,197.058 234.71,198.391 235.5,199.5 Z"/></g>
<g><path style="opacity:1" fill="#a6b9da" d="M 108.5,210.5 C 106.876,213.79 104.543,216.457 101.5,218.5C 95.9738,218.821 90.6405,218.488 85.5,217.5C 90.4187,217.205 94.4187,215.038 97.5,211C 101.152,210.501 104.818,210.335 108.5,210.5 Z"/></g>
<g><path style="opacity:0.98" fill="#4a5082" d="M 314.5,202.5 C 315.338,202.842 315.672,203.508 315.5,204.5C 314.02,210.109 312.02,215.443 309.5,220.5C 309.591,218.302 308.925,217.969 307.5,219.5C 309.267,213.515 311.6,207.848 314.5,202.5 Z"/></g>
<g><path style="opacity:1" fill="#cdd6e9" d="M 232.5,197.5 C 232.5,198.167 232.5,198.833 232.5,199.5C 232.527,207.127 229.527,213.127 223.5,217.5C 221.5,217.833 219.5,218.167 217.5,218.5C 213.833,218.5 210.167,218.5 206.5,218.5C 214.722,211.042 223.388,204.042 232.5,197.5 Z"/></g>
<g><path style="opacity:1" fill="#c5d5ed" d="M 98.5,201.5 C 106.26,201.195 113.927,201.862 121.5,203.5C 118.721,206.298 115.721,208.632 112.5,210.5C 111.167,210.5 109.833,210.5 108.5,210.5C 104.818,210.335 101.152,210.501 97.5,211C 94.4187,215.038 90.4187,217.205 85.5,217.5C 83.4471,217.598 81.7804,216.931 80.5,215.5C 84.8474,215.68 88.1807,213.847 90.5,210C 97.2946,210.935 102.628,208.601 106.5,203C 103.635,202.817 100.969,202.317 98.5,201.5 Z"/></g>
<g><path style="opacity:1" fill="#7b9aca" d="M 108.5,210.5 C 109.833,210.5 111.167,210.5 112.5,210.5C 114.5,210.5 116.5,210.5 118.5,210.5C 118.611,211.117 118.944,211.617 119.5,212C 116.645,214.031 113.978,216.197 111.5,218.5C 108.167,218.5 104.833,218.5 101.5,218.5C 104.543,216.457 106.876,213.79 108.5,210.5 Z"/></g>
<g><path style="opacity:1" fill="#7e9ccc" d="M 161.5,210.5 C 164.5,210.5 167.5,210.5 170.5,210.5C 171.833,210.5 173.167,210.5 174.5,210.5C 171.457,212.543 169.124,215.21 167.5,218.5C 165.833,218.5 164.167,218.5 162.5,218.5C 159.167,218.5 155.833,218.5 152.5,218.5C 154.254,214.412 157.254,211.745 161.5,210.5 Z"/></g>
<g><path style="opacity:1" fill="#4e73b0" d="M 152.5,210.5 C 154.167,210.5 155.833,210.5 157.5,210.5C 158.833,210.5 160.167,210.5 161.5,210.5C 157.254,211.745 154.254,214.412 152.5,218.5C 155.833,218.5 159.167,218.5 162.5,218.5C 164.969,219.317 167.635,219.817 170.5,220C 163.508,220.5 156.508,220.666 149.5,220.5C 148.01,218.72 146.01,218.054 143.5,218.5C 145.906,215.09 148.906,212.424 152.5,210.5 Z"/></g>
<g><path style="opacity:1" fill="#a6b4d4" d="M 174.5,210.5 C 177.167,210.5 179.833,210.5 182.5,210.5C 183.239,210.369 183.906,210.536 184.5,211C 181.204,212.763 178.204,214.929 175.5,217.5C 185.812,218.499 196.145,218.832 206.5,218.5C 210.167,218.5 213.833,218.5 217.5,218.5C 200.989,219.732 184.322,219.732 167.5,218.5C 169.124,215.21 171.457,212.543 174.5,210.5 Z"/></g>
<g><path style="opacity:1" fill="#14377f" d="M 432.5,214.5 C 432.047,215.458 431.381,216.292 430.5,217C 427.429,218.296 424.429,219.462 421.5,220.5C 411.5,220.5 401.5,220.5 391.5,220.5C 391.5,219.167 392.167,218.5 393.5,218.5C 403.839,218.666 414.172,218.5 424.5,218C 427.336,217.079 430.002,215.912 432.5,214.5 Z"/></g>
<g><path style="opacity:0.99" fill="#c6c6c9" d="M 435.5,212.5 C 435.833,212.5 436.167,212.5 436.5,212.5C 434.992,219.655 430.659,224.155 423.5,226C 410.504,226.5 397.504,226.667 384.5,226.5C 385.833,224.5 387.5,222.833 389.5,221.5C 400.346,221.828 411.013,221.494 421.5,220.5C 424.429,219.462 427.429,218.296 430.5,217C 431.381,216.292 432.047,215.458 432.5,214.5C 433.5,213.833 434.5,213.167 435.5,212.5 Z"/></g>
<g><path style="opacity:1" fill="#737a9c" d="M 71.5,192.5 C 71.185,196.371 71.5184,200.038 72.5,203.5C 73.1667,204.833 73.8333,206.167 74.5,207.5C 75.3528,211.02 77.3528,213.687 80.5,215.5C 81.7804,216.931 83.4471,217.598 85.5,217.5C 90.6405,218.488 95.9738,218.821 101.5,218.5C 117.132,220.485 133.132,221.151 149.5,220.5C 156.508,220.666 163.508,220.5 170.5,220C 167.635,219.817 164.969,219.317 162.5,218.5C 164.167,218.5 165.833,218.5 167.5,218.5C 184.322,219.732 200.989,219.732 217.5,218.5C 219.5,218.167 221.5,217.833 223.5,217.5C 224.492,217.328 225.158,217.662 225.5,218.5C 224.486,219.674 223.153,220.34 221.5,220.5C 196.859,221.462 172.192,221.795 147.5,221.5C 126.113,221.955 104.78,221.455 83.5,220C 81.5,219 79.5,218 77.5,217C 70.8491,209.898 68.8491,201.731 71.5,192.5 Z"/></g>
<g><path style="opacity:1" fill="#2d4784" d="M 101.5,218.5 C 104.833,218.5 108.167,218.5 111.5,218.5C 113.833,218.5 116.167,218.5 118.5,218.5C 126.833,218.5 135.167,218.5 143.5,218.5C 146.01,218.054 148.01,218.72 149.5,220.5C 133.132,221.151 117.132,220.485 101.5,218.5 Z"/></g>
<g><path style="opacity:0.992" fill="#717b9d" d="M 390.5,200.5 C 390.176,207.354 390.509,214.021 391.5,220.5C 401.5,220.5 411.5,220.5 421.5,220.5C 411.013,221.494 400.346,221.828 389.5,221.5C 389.5,215.167 389.5,208.833 389.5,202.5C 389.328,201.508 389.662,200.842 390.5,200.5 Z"/></g>
<g><path style="opacity:0.967" fill="#bdbdbd" d="M 221.5,220.5 C 218.84,222.497 215.84,223.997 212.5,225C 194.836,225.5 177.17,225.667 159.5,225.5C 156.695,224.681 153.695,224.181 150.5,224C 152.5,223.667 154.5,223.333 156.5,223C 153.305,222.819 150.305,222.319 147.5,221.5C 172.192,221.795 196.859,221.462 221.5,220.5 Z"/></g>
<g><path style="opacity:1" fill="#cccccb" d="M 285.5,221.5 C 292.833,221.5 300.167,221.5 307.5,221.5C 305.906,222.983 304.24,224.483 302.5,226C 293.419,226.819 285.085,226.652 277.5,225.5C 279.938,223.733 282.605,222.399 285.5,221.5 Z"/></g>
<g><path style="opacity:1" fill="#cdcdcd" d="M 250.5,221.5 C 257.167,221.5 263.833,221.5 270.5,221.5C 269.375,223.129 268.041,224.629 266.5,226C 258.988,226.822 251.655,226.655 244.5,225.5C 246.772,224.559 248.772,223.226 250.5,221.5 Z"/></g>
</svg>
